<svg width="212" height="105" viewBox="0 0 212 105" fill="none" xmlns="http://www.w3.org/2000/svg">
<path d="M111.568 104.372L105.206 94.7357L116.732 94.0444L111.568 104.372ZM1.19496 31.7627C0.653371 31.8708 0.126641 31.5195 0.0184816 30.9779C-0.0896781 30.4363 0.261679 29.9096 0.803266 29.8014L0.999112 30.782L1.19496 31.7627ZM206.782 35.2249L205.816 35.4845L206.782 35.2249ZM110.358 100.893C110.333 100.341 110.761 99.8742 111.313 99.85C111.865 99.8258 112.331 100.253 112.356 100.805L111.357 100.849L110.358 100.893ZM112.271 93.8353C112.26 94.3875 111.804 94.8265 111.251 94.8158C110.699 94.8052 110.26 94.349 110.271 93.7968L111.271 93.816L112.271 93.8353ZM110.628 86.7099C110.673 86.1594 111.155 85.7495 111.706 85.7943C112.256 85.8391 112.666 86.3216 112.621 86.8721L111.625 86.791L110.628 86.7099ZM113.398 79.9419C113.32 80.4887 112.814 80.8685 112.267 80.7904C111.72 80.7122 111.34 80.2057 111.419 79.6589L112.408 79.8004L113.398 79.9419ZM112.632 72.6689C112.743 72.1279 113.271 71.7789 113.813 71.8896C114.354 72.0003 114.703 72.5287 114.592 73.0697L113.612 72.8693L112.632 72.6689ZM116.191 66.2793C116.049 66.8129 115.501 67.1301 114.967 66.9877C114.434 66.8453 114.117 66.2972 114.259 65.7636L115.225 66.0215L116.191 66.2793ZM116.288 58.9658C116.462 58.4415 117.027 58.157 117.552 58.3304C118.076 58.5038 118.361 59.0695 118.187 59.5938L117.238 59.2798L116.288 58.9658ZM120.571 53.0365C120.367 53.5498 119.786 53.8006 119.273 53.5967C118.759 53.3929 118.508 52.8115 118.712 52.2982L119.642 52.6674L120.571 53.0365ZM121.525 45.7845C121.759 45.2842 122.354 45.0683 122.855 45.3022C123.355 45.5361 123.571 46.1313 123.337 46.6316L122.431 46.2081L121.525 45.7845ZM126.481 40.406C126.217 40.8912 125.609 41.0706 125.124 40.8067C124.639 40.5428 124.46 39.9356 124.724 39.4504L125.602 39.9282L126.481 40.406ZM128.308 33.3261C128.602 32.8585 129.219 32.7178 129.686 33.0118C130.154 33.3058 130.295 33.9231 130.001 34.3906L129.154 33.8583L128.308 33.3261ZM133.899 28.6232C133.574 29.07 132.949 29.1691 132.502 28.8446C132.055 28.52 131.956 27.8947 132.281 27.4478L133.09 28.0355L133.899 28.6232ZM136.657 21.8544C137.013 21.4322 137.643 21.3786 138.066 21.7347C138.488 22.0907 138.541 22.7216 138.185 23.1438L137.421 22.4991L136.657 21.8544ZM142.886 17.9981C142.497 18.3902 141.864 18.3927 141.472 18.0038C141.08 17.6148 141.077 16.9816 141.466 16.5896L142.176 17.2939L142.886 17.9981ZM146.711 11.7585C147.135 11.404 147.765 11.4599 148.12 11.8834C148.474 12.3069 148.418 12.9376 147.995 13.2921L147.353 12.5253L146.711 11.7585ZM153.516 9.14649C153.056 9.45274 152.435 9.32844 152.129 8.86884C151.823 8.40925 151.947 7.7884 152.407 7.48215L152.961 8.31432L153.516 9.14649ZM158.631 3.89466C159.128 3.65299 159.727 3.85964 159.968 4.35624C160.21 4.85284 160.003 5.45133 159.507 5.69301L159.069 4.79384L158.631 3.89466ZM165.881 3.20957C165.35 3.3638 164.795 3.05893 164.641 2.52862C164.487 1.99831 164.792 1.44338 165.322 1.28914L165.601 2.24935L165.881 3.20957ZM172.457 0.00231084C173.008 -0.0339468 173.484 0.383409 173.521 0.934503C173.557 1.4856 173.139 1.96174 172.588 1.998L172.523 1.00015L172.457 0.00231084ZM179.319 2.41762C178.777 2.30973 178.425 1.78318 178.533 1.24154C178.641 0.699894 179.168 0.348262 179.709 0.456147L179.514 1.43688L179.319 2.41762ZM186.597 2.86729C187.088 3.1202 187.281 3.72323 187.028 4.21421C186.775 4.70518 186.172 4.89818 185.681 4.64528L186.139 3.75629L186.597 2.86729ZM191.229 8.47319C190.815 8.10724 190.776 7.47526 191.142 7.06162C191.508 6.64798 192.14 6.60932 192.554 6.97527L191.891 7.72423L191.229 8.47319ZM197.457 12.3132C197.79 12.7535 197.704 13.3807 197.264 13.7141C196.823 14.0476 196.196 13.9609 195.863 13.5207L196.66 12.9169L197.457 12.3132ZM199.554 19.2737C199.289 18.789 199.467 18.1815 199.952 17.9167C200.437 17.652 201.044 17.8303 201.309 18.315L200.431 18.7943L199.554 19.2737ZM204.353 24.7628C204.561 25.2742 204.316 25.8578 203.805 26.0663C203.293 26.2749 202.71 26.0293 202.501 25.5179L203.427 25.1404L204.353 24.7628ZM204.827 32.0556C204.664 31.528 204.959 30.9679 205.487 30.8047C206.014 30.6415 206.574 30.937 206.737 31.4646L205.782 31.7601L204.827 32.0556ZM208.654 38.5054C208.784 39.0421 208.455 39.5827 207.918 39.7129C207.381 39.8431 206.841 39.5136 206.71 38.9769L207.682 38.7411L208.654 38.5054ZM208.121 45.6194C208.024 45.0757 208.386 44.5562 208.93 44.4592C209.474 44.3621 209.993 44.7241 210.09 45.2678L209.106 45.4436L208.121 45.6194ZM211.016 52.1867C211.061 52.7371 210.652 53.22 210.101 53.2652C209.551 53.3104 209.068 52.9009 209.023 52.3505L210.02 52.2686L211.016 52.1867ZM209.077 59.1259C209.123 58.5755 209.606 58.1666 210.157 58.2125C210.707 58.2585 211.116 58.7419 211.07 59.2922L210.074 59.2091L209.077 59.1259ZM209.468 66.2707C209.251 66.7786 208.664 67.0144 208.156 66.7973C207.648 66.5803 207.412 65.9927 207.629 65.4848L208.549 65.8778L209.468 66.2707ZM203.767 70.4C204.218 70.0809 204.842 70.1877 205.161 70.6385C205.48 71.0893 205.374 71.7134 204.923 72.0324L204.345 71.2162L203.767 70.4ZM198.141 74.6402C197.596 74.7284 197.082 74.358 196.994 73.8128C196.906 73.2676 197.276 72.7541 197.821 72.6659L197.981 73.6531L198.141 74.6402ZM191.103 72.8716C191.654 72.9107 192.069 73.389 192.03 73.9399C191.991 74.4908 191.513 74.9057 190.962 74.8666L191.032 73.8691L191.103 72.8716ZM184.027 73.9207C183.484 73.817 183.129 73.2931 183.233 72.7506C183.336 72.2082 183.86 71.8526 184.403 71.9563L184.215 72.9385L184.027 73.9207ZM177.745 70.4237C178.279 70.5645 178.598 71.1116 178.457 71.6456C178.317 72.1797 177.77 72.4984 177.235 72.3576L177.49 71.3907L177.745 70.4237ZM170.547 70.4274C170.02 70.2637 169.725 69.7034 169.889 69.176C170.053 68.6485 170.613 68.3536 171.14 68.5173L170.844 69.4724L170.547 70.4274ZM164.583 66.374C165.106 66.5524 165.385 67.1207 165.206 67.6434C165.028 68.1661 164.46 68.4452 163.937 68.2668L164.26 67.3204L164.583 66.374ZM157.377 65.9565C156.858 65.7686 156.589 65.1953 156.777 64.6759C156.965 64.1566 157.538 63.8879 158.058 64.0757L157.718 65.0161L157.377 65.9565ZM151.563 61.6815C152.081 61.8752 152.343 62.4515 152.149 62.9687C151.955 63.4859 151.379 63.7482 150.862 63.5544L151.213 62.618L151.563 61.6815ZM144.416 61.1144C143.9 60.9174 143.641 60.3395 143.838 59.8235C144.035 59.3075 144.613 59.0489 145.129 59.2459L144.772 60.1801L144.416 61.1144ZM138.681 56.7741C139.197 56.9722 139.454 57.5507 139.256 58.0663C139.058 58.5818 138.479 58.8391 137.964 58.6409L138.323 57.7075L138.681 56.7741ZM131.498 56.1573C130.983 55.9596 130.725 55.3813 130.922 54.8656C131.12 54.3499 131.698 54.0921 132.214 54.2898L131.856 55.2235L131.498 56.1573ZM125.726 51.8147C126.242 52.0105 126.502 52.5878 126.306 53.1042C126.11 53.6207 125.533 53.8806 125.017 53.6848L125.371 52.7498L125.726 51.8147ZM118.567 51.261C118.049 51.0684 117.786 50.4927 117.978 49.975C118.171 49.4574 118.747 49.1939 119.264 49.3865L118.916 50.3238L118.567 51.261ZM112.767 46.9987C113.286 47.1869 113.554 47.7604 113.366 48.2797C113.178 48.7989 112.604 49.0672 112.085 48.879L112.426 47.9389L112.767 46.9987ZM105.57 46.5554C105.049 46.3728 104.775 45.8022 104.957 45.281C105.14 44.7597 105.71 44.4853 106.232 44.668L105.901 45.6117L105.57 46.5554ZM99.6792 42.4174C100.203 42.5934 100.484 43.1604 100.308 43.6839C100.133 44.2074 99.5655 44.4891 99.042 44.3132L99.3606 43.3653L99.6792 42.4174ZM92.4873 42.1633C91.9612 41.9952 91.671 41.4325 91.8391 40.9064C92.0072 40.3803 92.57 40.0901 93.096 40.2582L92.7917 41.2107L92.4873 42.1633ZM86.4697 38.2025C86.9986 38.3615 87.2985 38.9191 87.1395 39.448C86.9805 39.9769 86.4229 40.2768 85.8939 40.1178L86.1818 39.1602L86.4697 38.2025ZM79.2707 38.1962C78.7387 38.0476 78.428 37.496 78.5765 36.964C78.7251 36.4321 79.2768 36.1213 79.8087 36.2699L79.5397 37.2331L79.2707 38.1962ZM73.1047 34.4756C73.6398 34.6124 73.9627 35.157 73.8259 35.6921C73.6892 36.2272 73.1445 36.5501 72.6094 36.4133L72.8571 35.4444L73.1047 34.4756ZM65.9113 34.7879C65.373 34.6644 65.0366 34.128 65.1601 33.5897C65.2835 33.0514 65.82 32.715 66.3583 32.8385L66.1348 33.8132L65.9113 34.7879ZM59.5754 31.38C60.1169 31.4884 60.468 32.0154 60.3595 32.5569C60.251 33.0984 59.7241 33.4495 59.1826 33.341L59.379 32.3605L59.5754 31.38ZM52.4045 32.0902C51.8599 31.9986 51.4927 31.4827 51.5843 30.9381C51.676 30.3935 52.1918 30.0263 52.7364 30.1179L52.5705 31.1041L52.4045 32.0902ZM45.863 29.0805C46.4104 29.1533 46.7952 29.6562 46.7223 30.2036C46.6495 30.7511 46.1466 31.1359 45.5991 31.063L45.731 30.0717L45.863 29.0805ZM38.7761 30.285C38.2263 30.2331 37.8226 29.7453 37.8745 29.1955C37.9264 28.6456 38.4142 28.242 38.9641 28.2939L38.8701 29.2895L38.7761 30.285ZM32.0174 27.784C32.5689 27.8126 32.9929 28.2828 32.9643 28.8344C32.9358 29.3859 32.4655 29.8099 31.914 29.7814L31.9657 28.7827L32.0174 27.784ZM25.0453 29.5845C24.4931 29.5818 24.0475 29.1319 24.0502 28.5796C24.0529 28.0274 24.5027 27.5818 25.055 27.5845L25.0502 28.5845L25.0453 29.5845ZM18.0967 27.7273C18.6484 27.7015 19.1165 28.1279 19.1423 28.6796C19.1681 29.2312 18.7417 29.6994 18.19 29.7251L18.1434 28.7262L18.0967 27.7273ZM11.3539 30.2354C10.8045 30.2923 10.3131 29.893 10.2562 29.3437C10.1993 28.7943 10.5986 28.3029 11.1479 28.246L11.2509 29.2407L11.3539 30.2354ZM4.23047 29.175C4.77529 29.0845 5.29033 29.4527 5.38085 29.9976C5.47137 30.5424 5.10308 31.0574 4.55826 31.1479L4.39437 30.1615L4.23047 29.175ZM111.271 93.816L110.271 93.7968C110.317 91.4176 110.437 89.054 110.628 86.7099L111.625 86.791L112.621 86.8721C112.434 89.1757 112.316 91.498 112.271 93.8353L111.271 93.816ZM112.408 79.8004L111.419 79.6589C111.755 77.3031 112.161 74.9717 112.632 72.6689L113.612 72.8693L114.592 73.0697C114.129 75.334 113.729 77.6261 113.398 79.9419L112.408 79.8004ZM115.225 66.0215L114.259 65.7636C114.873 63.4617 115.551 61.1943 116.288 58.9658L117.238 59.2798L118.187 59.5938C117.462 61.7855 116.795 64.0155 116.191 66.2793L115.225 66.0215ZM119.642 52.6674L118.712 52.2982C119.594 50.0789 120.533 47.906 121.525 45.7845L122.431 46.2081L123.337 46.6316C122.362 48.7173 121.438 50.8539 120.571 53.0365L119.642 52.6674ZM125.602 39.9282L124.724 39.4504C125.868 37.3454 127.065 35.302 128.308 33.3261L129.154 33.8583L130.001 34.3906C128.781 36.3306 127.606 38.3376 126.481 40.406L125.602 39.9282ZM133.09 28.0355L132.281 27.4478C133.697 25.4983 135.158 23.6315 136.657 21.8544L137.421 22.4991L138.185 23.1438C136.719 24.883 135.287 26.7117 133.899 28.6232L133.09 28.0355ZM142.176 17.2939L141.466 16.5896C143.181 14.8609 144.932 13.2474 146.711 11.7585L147.353 12.5253L147.995 13.2921C146.266 14.7395 144.56 16.311 142.886 17.9981L142.176 17.2939ZM152.961 8.31432L152.407 7.48215C154.463 6.11212 156.542 4.91152 158.631 3.89466L159.069 4.79384L159.507 5.69301C157.504 6.66746 155.503 7.82232 153.516 9.14649L152.961 8.31432ZM165.601 2.24935L165.322 1.28914C167.711 0.594278 170.097 0.157604 172.457 0.00231084L172.523 1.00015L172.588 1.998C170.385 2.14295 168.143 2.55159 165.881 3.20957L165.601 2.24935ZM179.514 1.43688L179.709 0.456147C182.073 0.926932 184.377 1.72387 186.597 2.86729L186.139 3.75629L185.681 4.64528C183.628 3.5876 181.5 2.85218 179.319 2.41762L179.514 1.43688ZM191.891 7.72423L192.554 6.97527C194.273 8.49604 195.911 10.2722 197.457 12.3132L196.66 12.9169L195.863 13.5207C194.391 11.5768 192.841 9.8996 191.229 8.47319L191.891 7.72423ZM200.431 18.7943L201.309 18.315C202.389 20.2926 203.406 22.4401 204.353 24.7628L203.427 25.1404L202.501 25.5179C201.58 23.2593 200.595 21.1802 199.554 19.2737L200.431 18.7943ZM205.782 31.7601L206.737 31.4646C207.088 32.5981 207.425 33.7648 207.748 34.9653L206.782 35.2249L205.816 35.4845C205.5 34.3072 205.17 33.1644 204.827 32.0556L205.782 31.7601ZM206.782 35.2249L207.748 34.9653C208.074 36.1778 208.376 37.3576 208.654 38.5054L207.682 38.7411L206.71 38.9769C206.436 37.8459 206.138 36.682 205.816 35.4845L206.782 35.2249ZM209.106 45.4436L210.09 45.2678C210.534 47.7505 210.841 50.054 211.016 52.1867L210.02 52.2686L209.023 52.3505C208.854 50.2899 208.555 48.0498 208.121 45.6194L209.106 45.4436ZM210.074 59.2091L211.07 59.2922C210.846 61.9755 210.312 64.2955 209.468 66.2707L208.549 65.8778L207.629 65.4848C208.371 63.7482 208.867 61.6462 209.077 59.1259L210.074 59.2091ZM204.345 71.2162L204.923 72.0324C203.012 73.385 200.727 74.2216 198.141 74.6402L197.981 73.6531L197.821 72.6659C200.178 72.2844 202.158 71.5388 203.767 70.4L204.345 71.2162ZM191.032 73.8691L190.962 74.8666C188.791 74.7128 186.475 74.3889 184.027 73.9207L184.215 72.9385L184.403 71.9563C186.791 72.4132 189.028 72.7245 191.103 72.8716L191.032 73.8691ZM177.49 71.3907L177.235 72.3576C175.086 71.7909 172.855 71.1435 170.547 70.4274L170.844 69.4724L171.14 68.5173C173.425 69.2265 175.629 69.8656 177.745 70.4237L177.49 71.3907ZM164.26 67.3204L163.937 68.2668C161.804 67.5387 159.616 66.766 157.377 65.9565L157.718 65.0161L158.058 64.0757C160.287 64.8819 162.463 65.6505 164.583 66.374L164.26 67.3204ZM151.213 62.618L150.862 63.5544C148.751 62.7637 146.601 61.9484 144.416 61.1144L144.772 60.1801L145.129 59.2459C147.312 60.0789 149.457 60.8926 151.563 61.6815L151.213 62.618ZM138.323 57.7075L137.964 58.6409C135.837 57.8233 133.681 56.994 131.498 56.1573L131.856 55.2235L132.214 54.2898C134.398 55.127 136.555 55.9568 138.681 56.7741L138.323 57.7075ZM125.371 52.7498L125.017 53.6848C122.888 52.8779 120.737 52.0686 118.567 51.261L118.916 50.3238L119.264 49.3865C121.439 50.1958 123.594 51.0066 125.726 51.8147L125.371 52.7498ZM112.426 47.9389L112.085 48.879C109.93 48.0977 107.757 47.3219 105.57 46.5554L105.901 45.6117L106.232 44.668C108.426 45.437 110.605 46.2152 112.767 46.9987L112.426 47.9389ZM99.3606 43.3653L99.042 44.3132C96.8687 43.5827 94.6832 42.8649 92.4873 42.1633L92.7917 41.2107L93.096 40.2582C95.3021 40.963 97.4972 41.684 99.6792 42.4174L99.3606 43.3653ZM86.1818 39.1602L85.8939 40.1178C83.6938 39.4565 81.4854 38.8148 79.2707 38.1962L79.5397 37.2331L79.8087 36.2699C82.0368 36.8923 84.2578 37.5377 86.4697 38.2025L86.1818 39.1602ZM72.8571 35.4444L72.6094 36.4133C70.3805 35.8436 68.1472 35.3006 65.9113 34.7879L66.1348 33.8132L66.3583 32.8385C68.6112 33.3551 70.8606 33.902 73.1047 34.4756L72.8571 35.4444ZM59.379 32.3605L59.1826 33.341C56.9231 32.8884 54.6631 32.4703 52.4045 32.0902L52.5705 31.1041L52.7364 30.1179C55.0164 30.5016 57.2967 30.9235 59.5754 31.38L59.379 32.3605ZM45.731 30.0717L45.5991 31.063C43.3206 30.7598 41.0456 30.4993 38.7761 30.285L38.8701 29.2895L38.9641 28.2939C41.2601 28.5106 43.5604 28.7741 45.863 29.0805L45.731 30.0717ZM31.9657 28.7827L31.914 29.7814C29.6158 29.6624 27.3255 29.5955 25.0453 29.5845L25.0502 28.5845L25.055 27.5845C27.3679 27.5957 29.6894 27.6636 32.0174 27.784L31.9657 28.7827ZM18.1434 28.7262L18.19 29.7251C15.898 29.8322 13.6185 30.0009 11.3539 30.2354L11.2509 29.2407L11.1479 28.246C13.4515 28.0075 15.7686 27.8361 18.0967 27.7273L18.1434 28.7262ZM4.39437 30.1615L4.55826 31.1479C3.43276 31.3349 2.31156 31.5397 1.19496 31.7627L0.999112 30.782L0.803266 29.8014C1.94147 29.5741 3.08397 29.3655 4.23047 29.175L4.39437 30.1615Z" fill="black"/>
</svg>
