<svg width="387" height="85" viewBox="0 0 387 85" fill="none" xmlns="http://www.w3.org/2000/svg">
<path d="M0.000615755 59.3267L11.09 46.0215L17.0679 62.2777L0.000615755 59.3267ZM130.067 2.10094C129.736 1.34185 130.082 0.457522 130.841 0.125726C131.6 -0.206091 132.485 0.140272 132.816 0.899354L131.442 1.50014L130.067 2.10094ZM213.208 58.0403L213.832 59.4044C213.806 59.4164 213.779 59.4277 213.752 59.4383L213.208 58.0403ZM134.282 4.16908C134.627 4.92185 134.298 5.81247 133.545 6.15831C132.792 6.50415 131.901 6.17425 131.556 5.42146L132.919 4.79526L134.282 4.16908ZM134.644 11.822C134.269 11.0829 134.565 10.1804 135.304 9.80607C136.043 9.43178 136.946 9.72747 137.32 10.4665L135.982 11.1442L134.644 11.822ZM140.497 16.4465C140.9 17.1702 140.64 18.0837 139.916 18.4869C139.193 18.8901 138.279 18.6303 137.876 17.9065L139.186 17.1765L140.497 16.4465ZM141.341 23.8342C140.908 23.128 141.129 22.2044 141.836 21.7713C142.542 21.3382 143.465 21.5595 143.899 22.2657L142.62 23.0499L141.341 23.8342ZM147.692 28.143C148.157 28.8284 147.979 29.7612 147.293 30.2266C146.608 30.692 145.675 30.5136 145.21 29.8283L146.451 28.9856L147.692 28.143ZM149.232 35.4614C148.735 34.799 148.868 33.8587 149.531 33.3612C150.193 32.8637 151.133 32.9974 151.631 33.6598L150.432 34.5606L149.232 35.4614ZM155.829 38.9676C156.359 39.6042 156.273 40.55 155.636 41.0802C155 41.6104 154.054 41.5242 153.524 40.8877L154.676 39.9277L155.829 38.9676ZM158.21 46.2149C157.646 45.608 157.68 44.6589 158.287 44.095C158.894 43.531 159.843 43.5658 160.407 44.1726L159.308 45.1937L158.21 46.2149ZM165.131 48.9843C165.728 49.559 165.745 50.5086 165.171 51.1052C164.596 51.7018 163.646 51.7195 163.05 51.1447L164.09 50.0645L165.131 48.9843ZM168.246 55.8691C167.617 55.33 167.544 54.3831 168.083 53.754C168.623 53.125 169.569 53.0521 170.199 53.5911L169.222 54.7301L168.246 55.8691ZM175.527 57.8881C176.187 58.3885 176.317 59.3294 175.816 59.9896C175.316 60.6498 174.375 60.7794 173.715 60.279L174.621 59.0836L175.527 57.8881ZM179.349 64.2887C178.66 63.829 178.474 62.8976 178.934 62.2084C179.393 61.5192 180.325 61.3332 181.014 61.793L180.182 63.0408L179.349 64.2887ZM186.861 65.4356C187.578 65.8515 187.822 66.7695 187.406 67.486C186.99 68.2024 186.072 68.4461 185.355 68.0303L186.108 66.733L186.861 65.4356ZM191.488 71.3417C190.747 70.9707 190.448 70.0695 190.819 69.3288C191.19 68.5881 192.091 68.2884 192.832 68.6594L192.16 70.0006L191.488 71.3417ZM199.03 71.5288C199.792 71.8536 200.146 72.7347 199.821 73.4968C199.497 74.2589 198.615 74.6134 197.853 74.2885L198.441 72.9087L199.03 71.5288ZM204.379 76.8393C203.599 76.5611 203.192 75.7029 203.47 74.9226C203.748 74.1423 204.607 73.7353 205.387 74.0135L204.883 75.4264L204.379 76.8393ZM211.864 76.1098C212.66 76.3418 213.116 77.1745 212.884 77.9698C212.652 78.7651 211.82 79.2218 211.024 78.9899L211.444 77.5499L211.864 76.1098ZM217.81 80.7589C217.002 80.5727 216.499 79.7674 216.685 78.9602C216.871 78.1529 217.676 77.6495 218.484 77.8356L218.147 79.2972L217.81 80.7589ZM225.168 79.184C225.984 79.3256 226.531 80.1022 226.389 80.9184C226.248 81.7346 225.471 82.2815 224.655 82.1398L224.911 80.6619L225.168 79.184ZM231.584 83.1539C230.761 83.0554 230.174 82.3087 230.273 81.4862C230.371 80.6636 231.118 80.0767 231.94 80.1752L231.762 81.6646L231.584 83.1539ZM238.749 80.8165C239.576 80.8736 240.199 81.5899 240.142 82.4164C240.085 83.2428 239.369 83.8665 238.542 83.8094L238.646 82.3129L238.749 80.8165ZM245.524 84.1232C244.696 84.1056 244.039 83.42 244.057 82.5917C244.074 81.7635 244.76 81.1063 245.588 81.1239L245.556 82.6235L245.524 84.1232ZM252.437 81.1122C253.265 81.0921 253.953 81.7472 253.973 82.5754C253.993 83.4036 253.338 84.0912 252.51 84.1113L252.473 82.6118L252.437 81.1122ZM259.485 83.7899C258.659 83.8458 257.944 83.221 257.888 82.3945C257.832 81.5679 258.457 80.8526 259.283 80.7968L259.384 82.2933L259.485 83.7899ZM266.115 80.1924C266.939 80.1026 267.679 80.6974 267.769 81.5209C267.859 82.3444 267.264 83.0849 266.441 83.1747L266.278 81.6835L266.115 80.1924ZM273.353 82.2824C272.534 82.4044 271.77 81.8391 271.648 81.0197C271.526 80.2003 272.092 79.4371 272.911 79.3151L273.132 80.7987L273.353 82.2824ZM279.692 78.1737C280.506 78.021 281.29 78.5573 281.443 79.3715C281.596 80.1857 281.06 80.9696 280.245 81.1223L279.969 79.648L279.692 78.1737ZM287.06 79.7164C286.251 79.8982 285.449 79.3904 285.267 78.5822C285.085 77.774 285.593 76.9714 286.401 76.7896L286.73 78.253L287.06 79.7164ZM293.094 75.1605C293.895 74.9507 294.715 75.4303 294.925 76.2317C295.135 77.0332 294.655 77.8529 293.854 78.0627L293.474 76.6116L293.094 75.1605ZM300.555 76.1875C299.761 76.424 298.926 75.9721 298.689 75.1781C298.453 74.3842 298.905 73.5488 299.699 73.3123L300.127 74.7499L300.555 76.1875ZM306.261 71.2396C307.047 70.9773 307.896 71.4016 308.159 72.1874C308.421 72.9732 307.997 73.8229 307.211 74.0852L306.736 72.6624L306.261 71.2396ZM313.787 71.7716C313.01 72.0589 312.148 71.662 311.86 70.8851C311.573 70.1081 311.97 69.2452 312.747 68.9579L313.267 70.3647L313.787 71.7716ZM319.143 66.4763C319.911 66.1645 320.786 66.534 321.097 67.3015C321.409 68.069 321.04 68.944 320.272 69.2557L319.708 67.866L319.143 66.4763ZM326.711 66.5203C325.954 66.8563 325.068 66.5148 324.732 65.7576C324.396 65.0003 324.737 64.1141 325.495 63.7781L326.103 65.1492L326.711 66.5203ZM331.695 60.9088C332.441 60.549 333.338 60.8622 333.698 61.6084C334.058 62.3546 333.744 63.2512 332.998 63.611L332.347 62.2599L331.695 60.9088ZM339.275 60.4564C338.542 60.8406 337.635 60.557 337.251 59.8231C336.867 59.0891 337.15 58.1827 337.884 57.7985L338.58 59.1275L339.275 60.4564ZM343.866 54.5392C344.586 54.1306 345.502 54.3835 345.911 55.1041C346.319 55.8247 346.066 56.7402 345.346 57.1488L344.606 55.844L343.866 54.5392ZM351.41 53.5646C350.704 53.9992 349.78 53.7797 349.346 53.0744C348.911 52.3692 349.13 51.4451 349.836 51.0105L350.623 52.2875L351.41 53.5646ZM355.575 47.3202C356.263 46.8584 357.195 47.0417 357.657 47.7295C358.118 48.4173 357.935 49.3492 357.247 49.8109L356.411 48.5655L355.575 47.3202ZM362.983 45.7778C362.316 46.2695 361.377 46.1276 360.886 45.4609C360.394 44.7942 360.536 43.8551 361.202 43.3634L362.093 44.5706L362.983 45.7778ZM366.639 39.1384C367.279 38.6126 368.224 38.7054 368.75 39.3457C369.276 39.9859 369.183 40.9311 368.543 41.4568L367.591 40.2976L366.639 39.1384ZM373.712 36.9433C373.106 37.5083 372.157 37.4752 371.592 36.8693C371.027 36.2634 371.06 35.3143 371.666 34.7493L372.689 35.8463L373.712 36.9433ZM376.517 29.8316C377.07 29.215 378.019 29.1636 378.635 29.7168C379.252 30.27 379.303 31.2184 378.75 31.835L377.633 30.8333L376.517 29.8316ZM383.195 26.1999C382.733 26.8872 381.801 27.0693 381.113 26.6068C380.426 26.1442 380.244 25.2121 380.706 24.5249L381.951 25.3624L383.195 26.1999ZM383.666 18.7722C383.924 17.9851 384.772 17.5564 385.559 17.8147C386.346 18.073 386.775 18.9204 386.517 19.7076L385.091 19.2399L383.666 18.7722ZM386.596 12.009C386.91 12.7757 386.543 13.6516 385.776 13.9653C385.009 14.279 384.133 13.9117 383.82 13.1449L385.208 12.577L386.596 12.009ZM379.771 9.46776C379.012 9.13525 378.666 8.2506 378.999 7.49183C379.331 6.73306 380.216 6.3875 380.975 6.72001L380.373 8.09388L379.771 9.46776ZM373.917 4.97964C374.74 5.07339 375.331 5.81664 375.238 6.63975C375.144 7.46285 374.401 8.05412 373.577 7.96037L373.747 6.47001L373.917 4.97964ZM366.795 7.718C365.967 7.74021 365.278 7.08688 365.256 6.25875C365.233 5.43062 365.887 4.74129 366.715 4.71908L366.755 6.21854L366.795 7.718ZM359.671 5.21542C360.494 5.12617 361.234 5.72149 361.323 6.54509C361.413 7.3687 360.817 8.10871 359.994 8.19796L359.832 6.70669L359.671 5.21542ZM353.366 9.1064C352.548 9.23957 351.777 8.68469 351.644 7.86703C351.511 7.04938 352.066 6.27858 352.884 6.14541L353.125 7.62591L353.366 9.1064ZM345.941 7.42829C346.752 7.26201 347.545 7.78511 347.711 8.59668C347.878 9.40825 347.355 10.2009 346.543 10.3672L346.242 8.89776L345.941 7.42829ZM339.832 11.8556C339.026 12.047 338.218 11.5488 338.026 10.7428C337.835 9.93681 338.333 9.12821 339.139 8.93676L339.486 10.3962L339.832 11.8556ZM332.572 10.5845C333.373 10.3734 334.194 10.8516 334.405 11.6527C334.616 12.4537 334.138 13.2743 333.337 13.4854L332.955 12.035L332.572 10.5845ZM326.354 15.4106C325.557 15.6392 324.727 15.1791 324.498 14.3829C324.269 13.5866 324.729 12.7558 325.526 12.5271L325.94 13.9689L326.354 15.4106ZM319.123 14.4264C319.915 14.1843 320.753 14.6302 320.996 15.4224C321.238 16.2147 320.792 17.0532 320 17.2954L319.561 15.8609L319.123 14.4264ZM313.557 19.319C312.769 19.5731 311.924 19.1398 311.67 18.3513C311.416 17.5628 311.849 16.7176 312.637 16.4636L313.097 17.8913L313.557 19.319ZM305.812 18.7166C306.597 18.4515 307.448 18.8729 307.713 19.6578C307.978 20.4427 307.557 21.2938 306.772 21.5589L306.292 20.1377L305.812 18.7166ZM300.216 23.8175C299.435 24.092 298.578 23.6808 298.304 22.8992C298.03 22.1175 298.441 21.2614 299.222 20.9869L299.719 22.4022L300.216 23.8175ZM292.97 23.2191C293.748 22.9366 294.609 23.339 294.891 24.1178C295.174 24.8966 294.771 25.7569 293.992 26.0393L293.481 24.6292L292.97 23.2191ZM287.518 28.4236C286.742 28.7137 285.878 28.3197 285.588 27.5437C285.298 26.7677 285.692 25.9035 286.468 25.6135L286.993 27.0186L287.518 28.4236ZM279.715 28.1733C280.488 27.8762 281.356 28.2622 281.653 29.0355C281.95 29.8088 281.564 30.6765 280.791 30.9737L280.253 29.5735L279.715 28.1733ZM274.355 33.4771C273.584 33.7805 272.713 33.4015 272.41 32.6306C272.107 31.8598 272.486 30.9889 273.256 30.6855L273.806 32.0813L274.355 33.4771ZM267.094 33.1366C267.863 32.8277 268.736 33.2005 269.045 33.9691C269.354 34.7378 268.981 35.6114 268.213 35.9203L267.653 34.5284L267.094 33.1366ZM261.88 38.4905C261.113 38.8046 260.237 38.4379 259.923 37.6713C259.609 36.9048 259.976 36.0287 260.742 35.7145L261.311 37.1025L261.88 38.4905ZM254.2 38.4214C254.964 38.1022 255.843 38.4632 256.162 39.2276C256.481 39.9921 256.12 40.8706 255.356 41.1898L254.778 39.8056L254.2 38.4214ZM248.637 44.0202C247.875 44.3442 246.994 43.9888 246.67 43.2264C246.346 42.4639 246.701 41.5832 247.464 41.2592L248.051 42.6397L248.637 44.0202ZM241.361 43.8724C242.122 43.5443 243.005 43.8949 243.333 44.6556C243.661 45.4162 243.31 46.2989 242.55 46.627L241.955 45.2497L241.361 43.8724ZM236.43 49.2857C235.671 49.6177 234.786 49.2716 234.454 48.5126C234.122 47.7536 234.469 46.8692 235.228 46.5371L235.829 47.9114L236.43 49.2857ZM228.946 49.304C229.703 48.9682 230.589 49.3099 230.925 50.0673C231.261 50.8246 230.919 51.7107 230.162 52.0465L229.554 50.6753L228.946 49.304ZM223.743 54.9109C222.988 55.2503 222.1 54.9129 221.76 54.1572C221.421 53.4015 221.758 52.5137 222.514 52.1743L223.129 53.5426L223.743 54.9109ZM215.932 55.1493C216.686 54.8063 217.575 55.1396 217.918 55.8937C218.261 56.6478 217.928 57.5372 217.174 57.8801L216.553 56.5147L215.932 55.1493ZM210.492 60.6879C209.716 60.9804 208.851 60.5892 208.558 59.8141C208.266 59.0391 208.657 58.1736 209.432 57.8811L209.962 59.2845L210.492 60.6879ZM203.075 60.2063C203.856 59.9299 204.713 60.3389 204.989 61.1198C205.266 61.9008 204.857 62.7579 204.076 63.0343L203.575 61.6203L203.075 60.2063ZM197.56 65.261C196.773 65.5202 195.925 65.0925 195.666 64.3056C195.407 63.5188 195.834 62.6708 196.621 62.4116L197.09 63.8363L197.56 65.261ZM190.218 64.4409C191.01 64.1998 191.848 64.6468 192.089 65.4393C192.33 66.2319 191.883 67.0698 191.091 67.311L190.654 65.876L190.218 64.4409ZM184.445 69.2453C183.646 69.467 182.82 68.9996 182.598 68.2014C182.376 67.4031 182.844 66.5764 183.642 66.3547L184.043 67.8L184.445 69.2453ZM177.096 68.0834C177.9 67.8821 178.715 68.3705 178.916 69.1741C179.117 69.9778 178.629 70.7923 177.825 70.9935L177.461 69.5384L177.096 68.0834ZM171.177 72.5644C170.368 72.744 169.567 72.234 169.387 71.4253C169.208 70.6165 169.718 69.8153 170.527 69.6357L170.852 71.1001L171.177 72.5644ZM163.85 71.0201C164.664 70.8635 165.45 71.3961 165.607 72.2096C165.763 73.0231 165.231 73.8094 164.417 73.966L164.134 72.493L163.85 71.0201ZM157.666 75.1628C156.849 75.2953 156.078 74.7397 155.946 73.922C155.813 73.1042 156.369 72.3339 157.187 72.2014L157.426 73.6821L157.666 75.1628ZM150.524 73.1765C151.346 73.0692 152.099 73.6482 152.206 74.4696C152.313 75.2911 151.734 76.044 150.913 76.1513L150.718 74.6639L150.524 73.1765ZM144.055 76.9351C143.231 77.0157 142.497 76.4128 142.416 75.5883C142.335 74.7638 142.938 74.03 143.763 73.9493L143.909 75.4422L144.055 76.9351ZM137.001 74.4978C137.828 74.4447 138.541 75.0718 138.594 75.8986C138.648 76.7253 138.02 77.4385 137.194 77.4916L137.098 75.9947L137.001 74.4978ZM130.334 77.8149C129.506 77.8396 128.815 77.1884 128.79 76.3603C128.765 75.5323 129.416 74.8409 130.244 74.8162L130.289 76.3155L130.334 77.8149ZM123.49 74.9C124.319 74.9042 124.987 75.5793 124.983 76.4077C124.978 77.2361 124.303 77.9042 123.475 77.8999L123.483 76.4L123.49 74.9ZM116.619 77.7429C115.791 77.7092 115.147 77.0109 115.181 76.1831C115.215 75.3554 115.913 74.7117 116.741 74.7454L116.68 76.2441L116.619 77.7429ZM109.983 74.3492C110.809 74.4124 111.428 75.1333 111.365 75.9594C111.301 76.7854 110.58 77.4037 109.754 77.3405L109.869 75.8448L109.983 74.3492ZM102.902 76.6931C102.079 76.6006 101.486 75.8582 101.579 75.035C101.671 74.2117 102.413 73.6193 103.237 73.7118L103.069 75.2024L102.902 76.6931ZM96.5201 72.8389C97.3396 72.9597 97.906 73.7221 97.7852 74.5417C97.6643 75.3612 96.9019 75.9276 96.0824 75.8068L96.3012 74.3228L96.5201 72.8389ZM89.3023 74.6912C88.4872 74.5434 87.9462 73.7628 88.0941 72.9476C88.2419 72.1325 89.0225 71.5915 89.8377 71.7394L89.57 73.2153L89.3023 74.6912ZM83.1928 70.4271C84.0031 70.5998 84.5198 71.3967 84.347 72.2069C84.1743 73.0171 83.3774 73.5339 82.5672 73.3611L82.88 71.8941L83.1928 70.4271ZM75.8813 71.837C75.0762 71.642 74.5815 70.8312 74.7764 70.0261C74.9714 69.2209 75.7821 68.7262 76.5873 68.9212L76.2343 70.3791L75.8813 71.837ZM70.0162 67.2465C70.8166 67.4601 71.2924 68.282 71.0789 69.0825C70.8653 69.8829 70.0434 70.3587 69.2429 70.1451L69.6296 68.6958L70.0162 67.2465ZM62.6308 68.315C61.8342 68.0874 61.373 67.2571 61.6006 66.4606C61.8281 65.664 62.6584 65.2028 63.4549 65.4304L63.0428 66.8727L62.6308 68.315ZM56.9125 63.5201C57.7067 63.7558 58.1594 64.5907 57.9237 65.3849C57.688 66.1791 56.8531 66.6318 56.0589 66.3961L56.4857 64.9581L56.9125 63.5201ZM49.5201 64.4466C48.7261 64.2104 48.2739 63.3752 48.5102 62.5811C48.7464 61.7871 49.5816 61.335 50.3757 61.5712L49.9479 63.0089L49.5201 64.4466ZM43.8263 59.6558C44.6231 59.8828 45.085 60.7126 44.858 61.5094C44.6311 62.3061 43.8012 62.768 43.0045 62.5411L43.4154 61.0985L43.8263 59.6558ZM36.4495 60.7623C35.6466 60.5579 35.1615 59.7414 35.3659 58.9386C35.5703 58.1358 36.3868 57.6507 37.1896 57.855L36.8195 59.3087L36.4495 60.7623ZM30.472 56.3078C31.284 56.4719 31.8092 57.2631 31.6452 58.0751C31.4811 58.8872 30.6898 59.4124 29.8778 59.2484L30.1749 57.7781L30.472 56.3078ZM23.2652 58.1616C22.4428 58.0615 21.8572 57.3138 21.9573 56.4914C22.0573 55.6691 22.805 55.0835 23.6274 55.1835L23.4463 56.6726L23.2652 58.1616ZM16.6627 54.7116C17.4911 54.7186 18.157 55.3957 18.1501 56.2241C18.1432 57.0525 17.466 57.7185 16.6377 57.7115L16.6502 56.2116L16.6627 54.7116ZM10.0578 58.1248C9.23734 58.2398 8.47908 57.6679 8.3641 56.8475C8.24914 56.0271 8.82101 55.2688 9.64143 55.1539L9.84959 56.6394L10.0578 58.1248ZM2.75487 56.7171C3.54404 56.4651 4.38806 56.9006 4.64004 57.6898C4.89203 58.479 4.45653 59.323 3.66735 59.575L3.2111 58.1461L2.75487 56.7171ZM131.442 1.50014L132.816 0.899354C133.299 2.00283 133.787 3.09269 134.282 4.16908L132.919 4.79526L131.556 5.42146C131.053 4.32806 130.557 3.22127 130.067 2.10094L131.442 1.50014ZM135.982 11.1442L137.32 10.4665C138.356 12.5124 139.415 14.5054 140.497 16.4465L139.186 17.1765L137.876 17.9065C136.775 15.9304 135.697 13.9025 134.644 11.822L135.982 11.1442ZM142.62 23.0499L143.899 22.2657C145.138 24.2858 146.402 26.2445 147.692 28.143L146.451 28.9856L145.21 29.8283C143.894 27.8908 142.604 25.8932 141.341 23.8342L142.62 23.0499ZM150.432 34.5606L151.631 33.6598C153.006 35.4906 154.406 37.2594 155.829 38.9676L154.676 39.9277L153.524 40.8877C152.068 39.1404 150.637 37.3321 149.232 35.4614L150.432 34.5606ZM159.308 45.1937L160.407 44.1726C161.958 45.8414 163.533 47.4447 165.131 48.9843L164.09 50.0645L163.05 51.1447C161.412 49.5666 159.798 47.9238 158.21 46.2149L159.308 45.1937ZM169.222 54.7301L170.199 53.5911C171.951 55.0931 173.728 56.5247 175.527 57.8881L174.621 59.0836L173.715 60.279C171.868 58.8793 170.044 57.41 168.246 55.8691L169.222 54.7301ZM180.182 63.0408L181.014 61.793C182.941 63.0786 184.891 64.2921 186.861 65.4356L186.108 66.733L185.355 68.0303C183.332 66.8555 181.329 65.6091 179.349 64.2887L180.182 63.0408ZM192.16 70.0006L192.832 68.6594C194.879 69.685 196.946 70.6407 199.03 71.5288L198.441 72.9087L197.853 74.2885C195.714 73.3766 193.591 72.3952 191.488 71.3417L192.16 70.0006ZM204.883 75.4264L205.387 74.0135C207.532 74.7782 209.691 75.4762 211.864 76.1098L211.444 77.5499L211.024 78.9899C208.796 78.34 206.58 77.6241 204.379 76.8393L204.883 75.4264ZM218.147 79.2972L218.484 77.8356C220.702 78.3471 222.931 78.7957 225.168 79.184L224.911 80.6619L224.655 82.1398C222.365 81.7423 220.082 81.2829 217.81 80.7589L218.147 79.2972ZM231.762 81.6646L231.94 80.1752C234.205 80.4464 236.475 80.6593 238.749 80.8165L238.646 82.3129L238.542 83.8094C236.22 83.6488 233.899 83.4312 231.584 83.1539L231.762 81.6646ZM245.556 82.6235L245.588 81.1239C247.871 81.1723 250.155 81.1675 252.437 81.1122L252.473 82.6118L252.51 84.1113C250.183 84.1677 247.854 84.1726 245.524 84.1232L245.556 82.6235ZM259.384 82.2933L259.283 80.7968C261.566 80.6425 263.844 80.4402 266.115 80.1924L266.278 81.6835L266.441 83.1747C264.129 83.4268 261.81 83.6328 259.485 83.7899L259.384 82.2933ZM273.132 80.7987L272.911 79.3151C275.182 78.977 277.443 78.5956 279.692 78.1737L279.969 79.648L280.245 81.1223C277.96 81.5509 275.662 81.9386 273.353 82.2824L273.132 80.7987ZM286.73 78.253L286.401 76.7896C288.648 76.2841 290.88 75.7401 293.094 75.1605L293.474 76.6116L293.854 78.0627C291.607 78.6509 289.341 79.2031 287.06 79.7164L286.73 78.253ZM300.127 74.7499L299.699 73.3123C301.908 72.6541 304.097 71.9622 306.261 71.2396L306.736 72.6624L307.211 74.0852C305.016 74.818 302.796 75.5198 300.555 76.1875L300.127 74.7499ZM313.267 70.3647L312.747 68.9579C314.908 68.1584 317.041 67.3302 319.143 66.4763L319.708 67.866L320.272 69.2557C318.141 70.1214 315.979 70.9611 313.787 71.7716L313.267 70.3647ZM326.103 65.1492L325.495 63.7781C327.599 62.8442 329.667 61.8866 331.695 60.9088L332.347 62.2599L332.998 63.611C330.942 64.6026 328.845 65.5735 326.711 66.5203L326.103 65.1492ZM338.58 59.1275L337.884 57.7985C339.928 56.7287 341.923 55.6409 343.866 54.5392L344.606 55.844L345.346 57.1488C343.374 58.2672 341.349 59.3712 339.275 60.4564L338.58 59.1275ZM350.623 52.2875L349.836 51.0105C351.817 49.7894 353.732 48.5574 355.575 47.3202L356.411 48.5655L357.247 49.8109C355.371 51.0705 353.424 52.3235 351.41 53.5646L350.623 52.2875ZM362.093 44.5706L361.202 43.3634C363.117 41.9512 364.932 40.5402 366.639 39.1384L367.591 40.2976L368.543 41.4568C366.793 42.8936 364.937 44.3365 362.983 45.7778L362.093 44.5706ZM372.689 35.8463L371.666 34.7493C373.46 33.0762 375.081 31.4321 376.517 29.8316L377.633 30.8333L378.75 31.835C377.248 33.5096 375.563 35.2171 373.712 36.9433L372.689 35.8463ZM381.951 25.3624L380.706 24.5249C382.11 22.4399 383.096 20.5102 383.666 18.7722L385.091 19.2399L386.517 19.7076C385.837 21.778 384.705 23.9571 383.195 26.1999L381.951 25.3624ZM385.208 12.577L383.82 13.1449C383.237 11.7218 381.995 10.4425 379.771 9.46776L380.373 8.09388L380.975 6.72001C383.723 7.92425 385.649 9.69337 386.596 12.009L385.208 12.577ZM373.747 6.47001L373.577 7.96037C371.613 7.7366 369.358 7.64928 366.795 7.718L366.755 6.21854L366.715 4.71908C369.389 4.64737 371.787 4.73705 373.917 4.97964L373.747 6.47001ZM359.832 6.70669L359.994 8.19796C357.927 8.42193 355.719 8.72313 353.366 9.1064L353.125 7.62591L352.884 6.14541C355.284 5.75444 357.545 5.44572 359.671 5.21542L359.832 6.70669ZM346.242 8.89776L346.543 10.3672C344.405 10.8053 342.169 11.3005 339.832 11.8556L339.486 10.3962L339.139 8.93676C341.504 8.37506 343.77 7.87299 345.941 7.42829L346.242 8.89776ZM332.955 12.035L333.337 13.4854C331.091 14.0774 328.764 14.7185 326.354 15.4106L325.94 13.9689L325.526 12.5271C327.956 11.8293 330.304 11.1823 332.572 10.5845L332.955 12.035ZM319.561 15.8609L320 17.2954C317.909 17.9345 315.762 18.6087 313.557 19.319L313.097 17.8913L312.637 16.4636C314.855 15.7489 317.017 15.0701 319.123 14.4264L319.561 15.8609ZM306.292 20.1377L306.772 21.5589C304.636 22.2802 302.451 23.0328 300.216 23.8175L299.719 22.4022L299.222 20.9869C301.468 20.1984 303.665 19.4418 305.812 18.7166L306.292 20.1377ZM293.481 24.6292L293.992 26.0393C291.876 26.8069 289.718 27.6014 287.518 28.4236L286.993 27.0186L286.468 25.6135C288.677 24.788 290.844 23.99 292.97 23.2191L293.481 24.6292ZM280.253 29.5735L280.791 30.9737C278.682 31.784 276.537 32.6184 274.355 33.4771L273.806 32.0813L273.256 30.6855C275.446 29.8239 277.598 28.9866 279.715 28.1733L280.253 29.5735ZM267.653 34.5284L268.213 35.9203C266.133 36.7557 264.023 37.6123 261.88 38.4905L261.311 37.1025L260.742 35.7145C262.891 34.8339 265.008 33.9747 267.094 33.1366L267.653 34.5284ZM254.778 39.8056L255.356 41.1898C253.148 42.1113 250.909 43.0546 248.637 44.0202L248.051 42.6397L247.464 41.2592C249.742 40.2912 251.987 39.3454 254.2 38.4214L254.778 39.8056ZM241.955 45.2497L242.55 46.627C240.534 47.4963 238.494 48.3825 236.43 49.2857L235.829 47.9114L235.228 46.5371C237.297 45.632 239.341 44.7438 241.361 43.8724L241.955 45.2497ZM229.554 50.6753L230.162 52.0465C228.047 52.984 225.908 53.9387 223.743 54.9109L223.129 53.5426L222.514 52.1743C224.683 51.2001 226.827 50.2434 228.946 49.304L229.554 50.6753ZM216.553 56.5147L217.174 57.8801C216.066 58.3838 214.952 58.8918 213.832 59.4044L213.208 58.0403L212.584 56.6763C213.706 56.1629 214.822 55.6539 215.932 55.1493L216.553 56.5147ZM213.208 58.0403L213.752 59.4383C212.659 59.8634 211.572 60.2799 210.492 60.6879L209.962 59.2845L209.432 57.8811C210.504 57.4768 211.581 57.0639 212.664 56.6424L213.208 58.0403ZM203.575 61.6203L204.076 63.0343C201.879 63.8119 199.707 64.5537 197.56 65.261L197.09 63.8363L196.621 62.4116C198.747 61.7113 200.898 60.9765 203.075 60.2063L203.575 61.6203ZM190.654 65.876L191.091 67.311C188.848 67.9934 186.633 68.6377 184.445 69.2453L184.043 67.8L183.642 66.3547C185.806 65.7537 187.998 65.1162 190.218 64.4409L190.654 65.876ZM177.461 69.5384L177.825 70.9935C175.58 71.5556 173.364 72.0786 171.177 72.5644L170.852 71.1001L170.527 69.6357C172.687 69.1559 174.877 68.6389 177.096 68.0834L177.461 69.5384ZM164.134 72.493L164.417 73.966C162.135 74.4052 159.885 74.8035 157.666 75.1628L157.426 73.6821L157.187 72.2014C159.376 71.8468 161.597 71.4537 163.85 71.0201L164.134 72.493ZM150.718 74.6639L150.913 76.1513C148.592 76.4544 146.306 76.7148 144.055 76.9351L143.909 75.4422L143.763 73.9493C145.982 73.7322 148.235 73.4755 150.524 73.1765L150.718 74.6639ZM137.098 75.9947L137.194 77.4916C134.869 77.641 132.583 77.7477 130.334 77.8149L130.289 76.3155L130.244 74.8162C132.459 74.75 134.711 74.645 137.001 74.4978L137.098 75.9947ZM123.483 76.4L123.475 77.8999C121.149 77.8879 118.864 77.8343 116.619 77.7429L116.68 76.2441L116.741 74.7454C118.951 74.8353 121.2 74.8881 123.49 74.9L123.483 76.4ZM109.869 75.8448L109.754 77.3405C107.426 77.1622 105.142 76.9448 102.902 76.6931L103.069 75.2024L103.237 73.7118C105.443 73.9597 107.691 74.1737 109.983 74.3492L109.869 75.8448ZM96.3012 74.3228L96.0824 75.8068C93.7757 75.4666 91.5164 75.0928 89.3023 74.6912L89.57 73.2153L89.8377 71.7394C92.0208 72.1353 94.2475 72.5037 96.5201 72.8389L96.3012 74.3228ZM82.88 71.8941L82.5672 73.3611C80.2898 72.8754 78.062 72.365 75.8813 71.837L76.2343 70.3791L76.5873 68.9212C78.7437 69.4433 80.9446 69.9476 83.1928 70.4271L82.88 71.8941ZM69.6296 68.6958L69.2429 70.1451C66.9881 69.5436 64.785 68.9304 62.6308 68.315L63.0428 66.8727L63.4549 65.4304C65.5958 66.042 67.7816 66.6504 70.0162 67.2465L69.6296 68.6958ZM56.4857 64.9581L56.0589 66.3961C53.8323 65.7353 51.644 65.0786 49.5201 64.4466L49.9479 63.0089L50.3757 61.5712C52.5142 62.2075 54.6815 62.858 56.9125 63.5201L56.4857 64.9581ZM43.4154 61.0985L43.0045 62.5411C40.7657 61.9034 38.5833 61.3056 36.4495 60.7623L36.8195 59.3087L37.1896 57.855C39.3586 58.4072 41.5695 59.013 43.8263 59.6558L43.4154 61.0985ZM30.1749 57.7781L29.8778 59.2484C27.6208 58.7924 25.4198 58.4236 23.2652 58.1616L23.4463 56.6726L23.6274 55.1835C25.873 55.4567 28.1524 55.8391 30.472 56.3078L30.1749 57.7781ZM16.6502 56.2116L16.6377 57.7115C14.4034 57.6929 12.2142 57.8227 10.0578 58.1248L9.84959 56.6394L9.64143 55.1539C11.9579 54.8293 14.2956 54.6919 16.6627 54.7116L16.6502 56.2116Z" fill="white"/>
</svg>
