<svg width="82" height="82" viewBox="0 0 82 82" fill="none" xmlns="http://www.w3.org/2000/svg">
<path d="M41.275 69.4752H36.7375L33.7125 66.4502H8V21.0752H14.05V57.3752C14.05 57.3752 32.4269 52.8377 41.275 69.4752Z" fill="#274C77"/>
<path d="M68.4984 57.3752V21.0752H74.5484V66.4502H48.8359L45.8109 69.4752H41.2734C50.1216 52.8377 68.4984 57.3752 68.4984 57.3752Z" fill="#274C77"/>
<path d="M41.2758 69.4752C32.4277 52.8377 14.0508 57.3752 14.0508 57.3752V16.5377L23.1258 13.5127V51.3252C33.1537 51.3252 41.2758 59.4473 41.2758 69.4752Z" fill="#6096BA"/>
<path d="M59.4234 13.5127L68.4984 16.5377V57.3752C68.4984 57.3752 50.1216 52.8377 41.2734 69.4752C41.2734 59.4473 49.3956 51.3252 59.4234 51.3252V13.5127Z" fill="#6096BA"/>
<path d="M41.275 30.15C41.275 20.1221 33.1529 12 23.125 12V51.325C33.1529 51.325 41.275 59.4471 41.275 69.475C41.275 59.4471 49.3971 51.325 59.425 51.325V12C49.3971 12 41.275 20.1221 41.275 30.15Z" fill="#A3CEF1"/>
</svg>
