<svg width="64" height="64" viewBox="0 0 64 64" fill="none" xmlns="http://www.w3.org/2000/svg">
<rect x="0.5" y="0.5" width="63" height="63" stroke="#AB1A1A"/>
<path fill-rule="evenodd" clip-rule="evenodd" d="M16.1865 2.93989C9.14575 4.07814 3.41325 8.88589 1.07 15.618C0.217249 18.0679 0.0706243 19.0643 0.0664993 22.4376C0.0624993 25.7866 0.184749 26.7495 0.955124 29.4376C2.23575 33.906 4.71075 38.4811 8.18137 42.7955L9.247 44.1203L8.2875 47.6539C7.1685 51.7748 7.11362 52.3005 7.692 53.3631C8.26662 54.4188 9.19788 54.9833 10.3836 54.9946C10.7163 54.9979 12.4256 54.6076 14.466 54.0626C16.3967 53.547 18.0284 53.1251 18.0919 53.1251C18.1554 53.1251 18.9373 53.7018 19.8294 54.4064C24.035 57.7285 27.9939 60.0894 30.8051 60.9519L31.9239 61.2951L32.7321 61.0831C33.7984 60.8035 35.6249 60.0164 37.0428 59.2255C38.2411 58.5571 41.1654 56.6573 42.4229 55.73L43.1591 55.1871L44.6261 56.6374C47.1712 59.1535 49.6894 60.8415 51.3619 61.1525L52.1147 61.2925L53.6506 60.5216C56.7316 58.9753 59.6813 56.2858 61.694 53.1876C63.226 50.8295 63.8714 49.0183 63.9659 46.8126C64.0397 45.0855 63.9086 44.2761 63.3708 43.1388C62.47 41.2341 61.0947 40.0069 58.7894 39.0505C58.5255 38.9411 58.5402 38.9014 59.273 37.7501C59.6886 37.097 60.4104 35.7869 60.8769 34.8388C65.1886 26.0748 65.0176 17.1779 60.413 10.7179C59.4378 9.34964 57.4444 7.37651 55.9954 6.34489C49.1811 1.49389 39.878 1.59976 33.3179 6.60301C32.7159 7.06201 32.1539 7.48789 32.0689 7.54926C31.9644 7.62476 31.6544 7.45751 31.1129 7.03364C28.6361 5.09464 25.8114 3.76914 22.7635 3.11576C21.1592 2.77176 17.7845 2.68151 16.1865 2.93989ZM21.8264 5.56839C24.9004 6.10339 27.8001 7.55439 30.3455 9.83151C30.808 10.2453 31.319 10.6545 31.4809 10.7409C32.0001 11.018 32.5771 10.7996 33.4352 10.0013C36.0014 7.61401 39.0046 6.09901 42.2453 5.55714C44.7719 5.13476 48.0005 5.46914 50.5079 6.41301C54.4038 7.87951 57.7214 10.8128 59.4944 14.3585C60.071 15.5115 60.8213 17.8693 61.0709 19.3126C61.3626 20.9991 61.3634 23.9909 61.0725 25.7974C60.4346 29.7589 58.9048 33.5186 56.3484 37.4064C55.5408 38.6348 55.4314 38.7504 55.0756 38.7528C54.5441 38.7564 53.0801 39.2874 52.3498 39.7414L51.749 40.1148L50.8428 39.6295C49.4964 38.9086 48.6589 38.6991 47.124 38.6991C44.9201 38.6991 43.2234 39.3971 41.6562 40.9486C40.6625 41.9326 40.0534 43.0218 39.6701 44.5001C39.3676 45.6666 39.3994 47.7694 39.739 49.0626C40.006 50.0795 40.7859 51.8498 41.2606 52.5164C41.4045 52.7186 41.4953 52.9546 41.4621 53.0409C41.3906 53.2274 39.4567 54.6119 37.6945 55.7383C36.1595 56.7193 33.7052 57.9903 32.6722 58.3391L31.9087 58.597L30.7955 58.1378C27.8161 56.9088 23.7326 54.2683 20.141 51.2485C19.6347 50.8228 19.0476 50.4249 18.8362 50.3643C18.5247 50.275 17.6992 50.456 14.4717 51.3219C12.2826 51.9091 10.3859 52.3561 10.2567 52.3151C10.1277 52.2741 9.99337 52.1656 9.95812 52.074C9.923 51.9824 10.3678 50.1424 10.9465 47.985C11.5254 45.8278 11.9989 43.8868 11.999 43.6719C11.999 43.3671 11.7494 42.9693 10.8639 41.8625C5.2715 34.8728 2.60825 28.6334 2.599 22.5001C2.59175 17.6638 4.25725 13.4988 7.499 10.2463C9.90275 7.83439 13.1196 6.17551 16.5615 5.57276C17.9274 5.33351 20.4649 5.33139 21.8264 5.56839ZM17.4055 20.9421C17.2547 21.0478 17.0661 21.3516 16.9865 21.6175C16.7766 22.3181 17.122 23.0008 17.7981 23.2215C18.1824 23.347 21.2248 23.3733 32.2771 23.3465L46.2695 23.3126L46.6343 22.9044C47.1436 22.3344 47.1434 21.6253 46.6336 21.1155L46.2682 20.7501H31.9739C19.3206 20.7501 17.6481 20.7721 17.4055 20.9421ZM17.4055 25.9421C17.2547 26.0478 17.0661 26.3516 16.9865 26.6175C16.7766 27.3181 17.122 28.0008 17.7981 28.2215C18.1824 28.347 21.2248 28.3733 32.2771 28.3465L46.2695 28.3126L46.6343 27.9044C47.1436 27.3344 47.1434 26.6253 46.6336 26.1155L46.2682 25.7501H31.9739C19.3206 25.7501 17.6481 25.7721 17.4055 25.9421ZM17.4055 30.9421C17.2547 31.0478 17.0661 31.3516 16.9865 31.6175C16.7769 32.3174 17.122 33.0008 17.7965 33.221C18.1787 33.3458 21.2464 33.3723 32.2755 33.346L46.2695 33.3126L46.6343 32.9044C47.1436 32.3344 47.1434 31.6253 46.6336 31.1155L46.2682 30.7501H31.9739C19.3206 30.7501 17.6481 30.7721 17.4055 30.9421ZM17.4055 35.9421C17.2547 36.0478 17.0661 36.3516 16.9865 36.6175C16.863 37.03 16.8761 37.1711 17.0766 37.5816C17.4734 38.394 17.4012 38.3874 25.4061 38.3478L32.5196 38.3126L32.8844 37.9044C33.3936 37.3343 33.3934 36.6253 32.8836 36.1155L32.5182 35.7501H25.0989C18.6286 35.7501 17.6445 35.7746 17.4055 35.9421ZM48.874 41.6095C49.2521 41.7546 49.8428 42.0968 50.1865 42.3698C51.5265 43.4341 51.9608 43.4699 52.9664 42.5989C53.2938 42.3153 53.9271 41.9103 54.374 41.6986C55.0935 41.3579 55.3153 41.3138 56.3115 41.3133C57.3476 41.3126 57.5105 41.3483 58.374 41.7636C59.519 42.3143 60.3644 43.1401 60.9065 44.2374C61.2423 44.9173 61.3091 45.2088 61.3516 46.1805C61.4328 48.0364 60.8053 49.8479 59.3446 51.9746C58.5108 53.1888 56.2496 55.5381 54.8968 56.596C53.699 57.5326 52.0638 58.5001 51.6782 58.5001C51.3599 58.5001 49.7371 57.5411 48.6205 56.693C47.4171 55.7789 45.2945 53.5785 44.3899 52.3071C42.735 49.9816 41.8926 47.7113 42.0386 45.9701C42.3156 42.6656 45.8125 40.4348 48.874 41.6095Z" fill="#AB1A1A"/>
</svg>
