<svg width="64" height="64" viewBox="0 0 64 64" fill="none" xmlns="http://www.w3.org/2000/svg">
<path fill-rule="evenodd" clip-rule="evenodd" d="M0.277875 4.56962L0 4.76412V11.9403C0 18.907 0.007 19.12 0.24175 19.2456C0.3995 19.33 2.72512 19.375 6.92925 19.375H13.375V32V44.625H6.92925C2.72512 44.625 0.3995 44.67 0.24175 44.7544C0.007 44.88 0 45.093 0 52.0597V59.2359L0.277875 59.4304C0.5265 59.6046 2.68938 59.625 20.9029 59.625C41.0834 59.625 41.252 59.623 41.5 59.375C41.7393 59.1357 41.75 58.9584 41.75 55.2431V51.3613L42.4688 51.0475C43.0606 50.7891 43.5845 50.339 45.4375 48.4961L47.6875 46.2585L51.229 46.223C54.5681 46.1895 54.7806 46.1736 54.9478 45.9449C55.0906 45.7492 55.125 45.0336 55.125 42.2566V38.8111L59.3875 34.5617C61.7456 32.211 63.7283 30.1327 63.825 29.9102C64.076 29.3335 64.0455 28.3281 63.7604 27.7763C63.4254 27.1278 60.0364 23.8046 59.4676 23.567C58.9342 23.3441 58.1676 23.3184 57.6644 23.5065C57.4709 23.5788 56.8204 24.126 56.2188 24.7226L55.125 25.8072V22.0525C55.125 19.0072 55.0915 18.2519 54.9476 18.0551C54.7741 17.818 54.4726 17.8117 41.5726 17.7795L28.375 17.7466V11.3326V4.91862L28.0858 4.64675L27.7964 4.375H14.176C2.05075 4.375 0.525125 4.39637 0.277875 4.56962ZM13.375 11.875V17.75H7.5H1.625V11.875V6H7.5H13.375V11.875ZM26.75 11.875V17.75H20.875H15V11.875V6H20.875H26.75V11.875ZM5.18188 7.93188L4.875 8.23862V11.9319C4.875 16.4505 4.7315 16.125 6.7235 16.125C8.345 16.125 8.9595 15.8857 9.56087 15.0205C9.88787 14.55 9.9375 14.3686 9.9375 13.6455C9.9375 13.0033 9.87425 12.7107 9.661 12.368L9.3845 11.9234L9.69225 11.3155C10.2339 10.2456 10.0029 9.09237 9.0855 8.287C8.50125 7.774 7.94438 7.6265 6.58813 7.62575C5.587 7.625 5.46125 7.65238 5.18188 7.93188ZM20.3069 8.68188L20 8.98862V11.9319C20 15.6639 19.8014 15.375 22.3679 15.375C24.1565 15.375 24.2441 15.3632 24.4304 15.0971C24.7046 14.7056 24.6729 14.4115 24.3181 14.0569C24.0352 13.7739 23.9184 13.75 22.8181 13.75H21.625V13.25V12.75H22.8181C23.9184 12.75 24.0352 12.7261 24.3181 12.4431C24.6901 12.0712 24.7094 11.7094 24.375 11.375C24.1584 11.1584 23.9584 11.125 22.875 11.125H21.625V10.5625V10H22.9304C24.1376 10 24.2505 9.97913 24.4304 9.72213C24.7046 9.33063 24.6729 9.0365 24.3181 8.68188C24.0225 8.38613 23.9496 8.375 22.3125 8.375C20.6754 8.375 20.6025 8.38613 20.3069 8.68188ZM7.79287 9.38875C8.22587 9.58612 8.42575 10.0757 8.24825 10.5042C8.07812 10.915 7.65387 11.125 6.99412 11.125H6.5V10.1875V9.25H6.99412C7.26587 9.25 7.62525 9.3125 7.79287 9.38875ZM8.06812 13.0569C8.4575 13.4461 8.4575 13.8039 8.06812 14.1931C7.8235 14.4379 7.63363 14.5 7.13062 14.5H6.5V13.625V12.75H7.13062C7.63363 12.75 7.8235 12.8121 8.06812 13.0569ZM26.75 25.3125V31.25H20.875H15V25.3125V19.375H20.875H26.75V25.3125ZM40.125 25.3125V31.25H34.25H28.375V25.3125V19.375H34.25H40.125V25.3125ZM53.5 23.4048V27.4346L51.5952 29.3423L49.6905 31.25H45.7202H41.75V25.3125V19.375H47.625H53.5V23.4048ZM20.2921 21.2812C19.9278 21.6887 16.8529 28.5952 16.8988 28.903C16.9583 29.3015 17.5365 29.6743 17.9385 29.5734C18.2083 29.5058 18.3633 29.295 18.7306 28.4963L19.1875 27.5033L20.84 27.5016L22.4924 27.5L22.925 28.4363C23.4301 29.5296 23.7987 29.8011 24.3554 29.4902C24.9858 29.1381 24.8989 28.8032 23.1833 24.9714C22.3131 23.0278 21.4878 21.3391 21.3493 21.2188C21.0051 20.9199 20.5934 20.9443 20.2921 21.2812ZM45.375 21.8468C45.2719 21.8803 45.089 21.9934 44.9688 22.0981C44.772 22.2696 44.75 22.5853 44.75 25.2415C44.75 28.5674 44.7916 28.75 45.5503 28.75C46.2197 28.75 46.375 28.46 46.375 27.2089V26.125H47.625H48.875V27.2306C48.875 28.475 49.026 28.75 49.7093 28.75C50.4694 28.75 50.5 28.6155 50.5 25.2804C50.5 21.8342 50.4712 21.7362 49.5 21.8715C49.0039 21.9405 48.875 22.2546 48.875 23.3944V24.5H47.625H46.375L46.3731 23.4062C46.372 22.8048 46.3287 22.2458 46.2767 22.1641C46.1489 21.9629 45.6058 21.7719 45.375 21.8468ZM21.3531 24.9375L21.7345 25.8125L20.915 25.8498C20.4643 25.8703 20.0705 25.8623 20.0401 25.8318C20.0098 25.8014 20.1686 25.3491 20.3932 24.8266C20.618 24.3043 20.84 23.9185 20.8867 23.9696C20.9336 24.0208 21.1435 24.4562 21.3531 24.9375ZM60.5841 26.7756C61.9634 28.1431 62.375 28.6251 62.375 28.8725C62.375 29.1052 62.1246 29.4424 61.4666 30.0961L60.5581 30.9985L58.5001 28.9376L56.442 26.8768L57.3741 25.9384C57.8981 25.4109 58.4129 25 58.5496 25C58.6955 25 59.5116 25.7124 60.5841 26.7756ZM57.3469 30.1593L59.3784 32.1936L58.7801 32.7829L58.1818 33.3721L56.1255 31.313L54.0691 29.2539L54.6231 28.6894C54.9277 28.379 55.2081 28.125 55.2463 28.125C55.2842 28.125 56.2295 29.0404 57.3469 30.1593ZM54.9696 32.5321L56.999 34.5643L49.875 41.6875L42.751 48.8106L40.6875 46.75L38.624 44.6894L45.7179 37.5946C49.6195 33.6926 52.8406 30.5 52.876 30.5C52.9114 30.5 53.8535 31.4145 54.9696 32.5321ZM26.75 38.6875V44.625H20.875H15V38.6875V32.75H20.875H26.75V38.6875ZM40.1227 36.7812L40.1205 40.8125L38.2324 42.7188L36.3441 44.625H32.3596H28.375V38.6875V32.75H34.25H40.125L40.1227 36.7812ZM48.125 32.7821C48.125 32.7999 46.6906 34.2479 44.9375 36L41.75 39.1856V35.9679V32.75H44.9375C46.6906 32.75 48.125 32.7645 48.125 32.7821ZM53.5 42.5625V44.625H51.4076H49.3154L51.375 42.5625C52.5078 41.4281 53.4494 40.5 53.4674 40.5C53.4853 40.5 53.5 41.4281 53.5 42.5625ZM41.1539 49.7632C41.1036 49.8092 40.4071 50.1274 39.606 50.47L38.1496 51.0931L37.2449 50.1824L36.3401 49.2715L37.0109 47.6969L37.6816 46.1222L39.4635 47.9009C40.4435 48.8792 41.2043 49.7172 41.1539 49.7632ZM13.375 52.125V58H7.5H1.625V52.125V46.25H7.5H13.375V52.125ZM26.75 52.125V58H20.875H15V52.125V46.25H20.875H26.75V52.125ZM35.75 46.3442C35.75 46.3961 35.0469 48.0908 34.1875 50.11C33.3281 52.1294 32.625 53.8966 32.625 54.0373C32.625 54.4151 32.989 54.75 33.4 54.75C33.5988 54.75 35.1463 54.1594 36.839 53.4375C38.5317 52.7156 39.9636 52.125 40.0209 52.125C40.0781 52.125 40.125 53.4469 40.125 55.0625V58H34.25H28.375V52.125V46.25H32.0625C34.0906 46.25 35.75 46.2924 35.75 46.3442ZM20.5812 47.6311C19.1069 47.8785 17.6455 49.075 17.1278 50.4588C16.856 51.1853 16.7711 52.4665 16.9468 53.1937C17.667 56.1769 21.3625 57.5785 24.0333 55.8815C24.3609 55.6733 24.6944 55.3594 24.7744 55.184C25.1178 54.4304 24.3376 53.7205 23.6478 54.1587C22.5871 54.8326 21.9835 55.0332 21.2234 54.9642C20.3021 54.8807 19.4762 54.4035 18.9451 53.6479C18.4411 52.9308 18.3414 51.6761 18.728 50.9181C19.2981 49.8006 20.7461 48.9992 21.837 49.1976C22.3542 49.2917 23.4345 49.793 23.561 49.9976C23.6044 50.0676 23.8246 50.125 24.0505 50.125C24.8718 50.125 25.158 49.255 24.5312 48.6639C24.054 48.2139 23.0295 47.7621 22.1651 47.6206C21.3622 47.4891 21.4302 47.4886 20.5812 47.6311ZM4.82137 48.8214C4.65337 48.9895 4.625 49.4671 4.625 52.1269C4.625 55.1979 4.62838 55.2383 4.90287 55.4304C5.29437 55.7046 5.5885 55.6729 5.94312 55.3181C6.22112 55.0403 6.25 54.9106 6.25 53.9431V52.875H7.5H8.75V54.0596C8.75 55.1947 8.7635 55.253 9.07213 55.4554C9.31488 55.6144 9.47612 55.6377 9.72575 55.5499C10.3348 55.3357 10.381 55.063 10.3454 51.896C10.3147 49.174 10.2962 48.9676 10.0699 48.8022C9.7485 48.5675 9.19088 48.577 8.94637 48.8214C8.79725 48.9706 8.75 49.286 8.75 50.1339V51.25H7.51237H6.27488L6.23112 50.1149C6.19462 49.1663 6.14762 48.9505 5.94487 48.8024C5.6235 48.5675 5.06588 48.577 4.82137 48.8214ZM35.7912 52.0866C35.4017 52.2451 35.0725 52.3607 35.0595 52.3436C35.0465 52.3265 35.1711 52.0088 35.3363 51.6374L35.6366 50.9622L36.0681 51.3804L36.4995 51.7985L35.7912 52.0866Z" fill="black"/>
</svg>
