<svg width="96" height="96" viewBox="0 0 96 96" fill="none" xmlns="http://www.w3.org/2000/svg">
<path d="M95.5751 47.6331C95.5751 49.2798 95.4937 50.9013 95.3309 52.5041C95.1681 54.1069 94.924 55.6847 94.611 57.2312C94.2917 58.7839 93.9035 60.3053 93.4402 61.7954C92.977 63.2855 92.4386 64.7443 91.8375 66.1718C91.2365 67.5993 90.5667 68.9829 89.8342 70.3353C89.1017 71.6877 88.3066 72.9962 87.4489 74.2609C86.5912 75.5256 85.6772 76.7527 84.7068 77.9298C83.7364 79.1069 82.7097 80.2338 81.6329 81.3107C80.5561 82.3876 79.4292 83.4144 78.2522 84.3848C77.0752 85.3553 75.8544 86.2694 74.5835 87.1271C73.3189 87.9849 72.0042 88.78 70.6582 89.5125C69.3059 90.2451 67.9224 90.915 66.495 91.516C65.0676 92.1171 63.6089 92.6555 62.1188 93.1188C60.6288 93.5821 59.1075 93.9766 57.5549 94.2896C56.0023 94.6027 54.4247 94.8468 52.8282 95.0096C51.2255 95.1724 49.6041 95.2538 47.9576 95.2538C46.311 95.2538 44.6896 95.1724 43.0869 95.0096C41.4842 94.8468 39.9065 94.6027 38.3602 94.2896C36.8076 93.9703 35.2863 93.5821 33.7963 93.1188C32.3063 92.6555 30.8475 92.1171 29.4201 91.516C27.9927 90.915 26.6092 90.2451 25.2569 89.5125C23.9046 88.78 22.5962 87.9849 21.3316 87.1271C20.0669 86.2694 18.8399 85.3553 17.6629 84.3848C16.4859 83.4144 15.359 82.3876 14.2822 81.3107C13.2054 80.2338 12.1787 79.1069 11.2083 77.9298C10.2379 76.7527 9.32387 75.5319 8.46618 74.2609C7.60849 72.9962 6.81341 71.6814 6.08092 70.3353C5.34844 68.9829 4.67857 67.5993 4.07756 66.1718C3.47655 64.7443 2.93814 63.2855 2.47486 61.7954C2.01158 60.3053 1.61717 58.7839 1.30415 57.2312C0.984861 55.6784 0.74696 54.1007 0.584187 52.5041C0.421413 50.9013 0.340027 49.2798 0.340027 47.6331C0.340027 45.9865 0.421413 44.3649 0.584187 42.7621C0.74696 41.1593 0.991122 39.5816 1.30415 38.0351C1.62343 36.4824 2.01158 34.961 2.47486 33.4709C2.93814 31.9808 3.47655 30.522 4.07756 29.0945C4.67857 27.667 5.34844 26.2833 6.08092 24.931C6.81341 23.5786 7.60849 22.2701 8.46618 21.0054C9.32387 19.7407 10.2379 18.5135 11.2083 17.3365C12.1787 16.1594 13.2054 15.0324 14.2822 13.9556C15.359 12.8787 16.4859 11.8519 17.6629 10.8814C18.8399 9.91099 20.0607 8.99689 21.3316 8.13915C22.5962 7.2814 23.9109 6.48626 25.2569 5.75373C26.6092 5.0212 27.9927 4.35128 29.4201 3.75023C30.8475 3.14918 32.3063 2.61074 33.7963 2.14743C35.2863 1.68412 36.8076 1.28968 38.3602 0.976635C39.9128 0.657328 41.4904 0.419412 43.0869 0.256628C44.6896 0.0938433 46.311 0.0124512 47.9576 0.0124512C49.6041 0.0124512 51.2255 0.0938433 52.8282 0.256628C54.4309 0.419412 56.0086 0.663589 57.5549 0.976635C59.1013 1.28968 60.6288 1.68412 62.1188 2.14743C63.6089 2.61074 65.0676 3.14918 66.495 3.75023C67.9224 4.35128 69.3059 5.0212 70.6582 5.75373C72.0105 6.48626 73.3189 7.2814 74.5835 8.13915C75.8482 8.99689 77.0752 9.91099 78.2522 10.8814C79.4292 11.8519 80.5561 12.8787 81.6329 13.9556C82.7097 15.0324 83.7364 16.1594 84.7068 17.3365C85.6772 18.5135 86.5912 19.7344 87.4489 21.0054C88.3066 22.2701 89.1017 23.5849 89.8342 24.931C90.5667 26.2833 91.2365 27.667 91.8375 29.0945C92.4386 30.522 92.977 31.9808 93.4402 33.4709C93.9035 34.961 94.2979 36.4824 94.611 38.0351C94.9302 39.5878 95.1681 41.1656 95.3309 42.7621C95.4937 44.3649 95.5751 45.9865 95.5751 47.6331Z" fill="#3035C3"/>
<path d="M65.2427 40.5707C65.3116 40.2013 65.3804 39.8382 65.4556 39.4751C65.5307 39.1182 65.6058 38.7676 65.6809 38.4232C65.7561 38.0789 65.8374 37.7408 65.9188 37.409C66.0002 37.0771 66.0816 36.7516 66.1693 36.4323C66.2569 36.1129 66.3445 35.7999 66.4322 35.4931C66.5198 35.1863 66.6138 34.8858 66.7014 34.5978C66.7953 34.3035 66.883 34.0155 66.9769 33.7401C67.0708 33.4583 67.1647 33.1891 67.2586 32.9199C67.3525 32.6507 67.4527 32.394 67.5466 32.1373C67.6405 31.8806 67.7406 31.6364 67.8346 31.3922C67.9285 31.148 68.0286 30.9164 68.1225 30.6847C68.2164 30.4531 68.3166 30.2339 68.4105 30.0211C68.5044 29.8082 68.6046 29.5953 68.6985 29.395C68.7924 29.1946 68.8863 28.9943 68.9802 28.8064C69.0741 28.6186 69.168 28.4308 69.2619 28.2555C69.3559 28.0802 69.4435 27.9049 69.5312 27.7421C69.5687 27.6795 69.5938 27.6106 69.6188 27.548C69.6438 27.4854 69.6564 27.4165 69.6689 27.3539C69.6814 27.2913 69.6814 27.2224 69.6814 27.1598C69.6814 27.0972 69.6751 27.0346 69.6626 26.972C69.6501 26.9094 69.6376 26.853 69.6125 26.7967C69.5938 26.7403 69.5687 26.684 69.5374 26.6276C69.5061 26.5713 69.4748 26.5212 69.4372 26.4711C69.3997 26.421 69.3621 26.3772 69.3183 26.3334C69.2745 26.2895 69.2306 26.252 69.1806 26.2144C69.1305 26.1768 69.0804 26.1455 69.0303 26.1205C68.974 26.0892 68.9239 26.0704 68.8613 26.0454C68.7987 26.0203 68.7423 26.0078 68.686 26.0015C68.6234 25.989 68.567 25.989 68.5044 25.989C68.4418 25.989 68.3792 25.989 68.3166 26.0078C68.254 26.0203 68.1914 26.0391 68.1225 26.0579C68.0599 26.0829 67.9973 26.1142 67.9285 26.1518C67.1772 26.5901 66.4572 27.0346 65.7623 27.4979C65.0674 27.9549 64.3975 28.4308 63.7527 28.9129C63.1079 29.395 62.4881 29.8833 61.8933 30.3842C61.2986 30.8851 60.7289 31.3922 60.1779 31.9056C59.627 32.419 59.1074 32.9449 58.6128 33.4771C58.1182 34.0093 57.6362 34.5415 57.1854 35.0799C56.7347 35.6183 56.3027 36.163 55.8957 36.714C55.4888 37.265 55.1069 37.8159 54.7438 38.3669C54.3807 38.9241 54.0426 39.4813 53.7233 40.0386C53.4041 40.5958 53.1098 41.153 52.8343 41.7165C52.5589 42.2737 52.3085 42.8309 52.0706 43.3882C51.8389 43.9454 51.6261 44.5026 51.432 45.0536C51.2379 45.6045 51.0689 46.1555 50.9124 46.7002C50.7559 47.2449 50.6244 47.7896 50.5117 48.3218C50.399 48.8602 50.2988 49.3924 50.2237 49.9121C50.1486 50.438 50.086 50.9576 50.0484 51.4648C50.0108 51.903 49.9983 52.3476 50.0046 52.7858C50.0046 53.2241 50.0359 53.6624 50.0797 54.1006C50.1235 54.5389 50.1924 54.9709 50.2738 55.4029C50.3552 55.8349 50.4616 56.2606 50.5806 56.6864C50.6995 57.1121 50.8435 57.5254 51 57.9386C51.1565 58.3518 51.3318 58.7525 51.5196 59.1469C51.7075 59.5414 51.9203 59.9296 52.1394 60.3115C52.3585 60.6934 52.6027 61.0565 52.8594 61.4134C53.1161 61.7703 53.3853 62.1146 53.667 62.4527C53.955 62.7845 54.2492 63.1039 54.5622 63.4106C54.8753 63.7174 55.2008 64.0117 55.5451 64.2872C55.8832 64.5626 56.2401 64.8256 56.6032 65.0698C56.9725 65.314 57.3482 65.5394 57.7363 65.746C58.1245 65.9526 58.5314 66.1404 58.9446 66.3157C59.3578 66.4848 59.7835 66.635 60.2155 66.7602C60.6475 66.8855 61.0982 66.9919 61.549 67.0733C62.006 67.1547 62.4568 67.2173 62.9075 67.2486C63.3583 67.2862 63.809 67.2987 64.2535 67.2862C64.698 67.2736 65.1425 67.2423 65.5745 67.1922C66.0127 67.1359 66.4385 67.067 66.8642 66.9668C67.2899 66.8729 67.7093 66.754 68.1163 66.6225C68.5295 66.4848 68.9301 66.3345 69.3246 66.1592C69.719 65.9839 70.1009 65.7961 70.4765 65.5832C70.8521 65.3766 71.2152 65.1449 71.5658 64.9007C71.9164 64.6566 72.2607 64.3936 72.5863 64.1181C72.9118 63.8426 73.2311 63.5484 73.5316 63.2416C73.8321 62.9348 74.1201 62.6092 74.3893 62.2774C74.6585 61.9393 74.9152 61.5887 75.1531 61.2256C75.391 60.8624 75.6101 60.4868 75.8167 60.0923C76.0171 59.7042 76.2049 59.3035 76.3676 58.8902C76.5304 58.477 76.6807 58.0513 76.8059 57.6193C76.9311 57.1873 77.0375 56.7365 77.1189 56.2857C77.2066 55.8099 77.2629 55.334 77.3005 54.8582C77.338 54.3824 77.3443 53.9128 77.3318 53.4495C77.3192 52.9862 77.2754 52.5229 77.2128 52.0658C77.1502 51.6088 77.0626 51.158 76.9561 50.7135C76.8497 50.2689 76.7182 49.8369 76.568 49.4049C76.4177 48.9792 76.2424 48.5597 76.0484 48.1527C75.8543 47.7458 75.6414 47.3451 75.4098 46.9632C75.1781 46.575 74.9277 46.2056 74.6523 45.8424C74.3831 45.4793 74.0951 45.135 73.7883 44.8031C73.4815 44.4713 73.1623 44.152 72.8179 43.8515C72.4736 43.5509 72.123 43.2692 71.7536 43C71.3843 42.737 70.9961 42.4866 70.6017 42.2549C70.201 42.0295 69.7878 41.8167 69.3621 41.6288C68.9364 41.441 68.4982 41.272 68.0474 41.128C67.5966 40.984 67.1334 40.865 66.6576 40.7648C66.1818 40.6709 65.6997 40.5958 65.1989 40.5457L65.2427 40.5707Z" fill="white"/>
<path d="M32.6692 40.5707C32.7381 40.2013 32.8069 39.8382 32.8821 39.4751C32.9572 39.1182 33.0323 38.7676 33.1074 38.4232C33.1826 38.0789 33.264 37.7408 33.3453 37.409C33.4267 37.0771 33.5081 36.7516 33.5958 36.4323C33.6834 36.1129 33.7711 35.7999 33.8587 35.4931C33.9464 35.1863 34.0403 34.8858 34.1279 34.5978C34.2218 34.3035 34.3095 34.0155 34.4034 33.7401C34.4973 33.4583 34.5912 33.1891 34.6851 32.9199C34.779 32.6507 34.8792 32.394 34.9731 32.1373C35.067 31.8806 35.1672 31.6364 35.2611 31.3922C35.355 31.148 35.4551 30.9164 35.5491 30.6847C35.643 30.4531 35.7431 30.2339 35.837 30.0211C35.9309 29.8082 36.0311 29.5953 36.125 29.395C36.2189 29.1946 36.3128 28.9943 36.4067 28.8064C36.5007 28.6186 36.5946 28.4308 36.6885 28.2555C36.7824 28.0802 36.87 27.9049 36.9577 27.7421C36.9952 27.6795 37.0203 27.6106 37.0453 27.548C37.0704 27.4854 37.0829 27.4165 37.0954 27.3539C37.1079 27.2913 37.1079 27.2224 37.1079 27.1598C37.1079 27.0972 37.1017 27.0346 37.0891 26.972C37.0766 26.9094 37.0641 26.853 37.0391 26.7967C37.0203 26.7403 36.9952 26.684 36.9639 26.6276C36.9326 26.5713 36.9013 26.5212 36.8638 26.4711C36.8262 26.421 36.7886 26.3772 36.7448 26.3334C36.701 26.2895 36.6572 26.252 36.6071 26.2144C36.557 26.1768 36.5069 26.1455 36.4568 26.1205C36.4067 26.0955 36.3504 26.0704 36.2878 26.0454C36.2314 26.0266 36.1688 26.0078 36.1125 26.0015C36.0562 25.9953 35.9936 25.989 35.9309 25.989C35.8683 25.989 35.8057 25.989 35.7431 26.0078C35.6805 26.0203 35.6179 26.0391 35.5491 26.0579C35.4865 26.0829 35.4238 26.1142 35.355 26.1518C34.6037 26.5901 33.8838 27.0346 33.1888 27.4979C32.4939 27.9612 31.824 28.4308 31.1792 28.9129C30.5344 29.395 29.9146 29.8833 29.3198 30.3842C28.7251 30.8851 28.1554 31.3922 27.6044 31.9056C27.0598 32.419 26.5339 32.9449 26.0393 33.4771C25.5447 34.0093 25.0627 34.5415 24.6119 35.0799C24.1612 35.6183 23.7292 36.163 23.3223 36.714C22.9153 37.265 22.5334 37.8159 22.1703 38.3669C21.8072 38.9241 21.4691 39.4813 21.1499 40.0386C20.8306 40.5958 20.5363 41.153 20.2609 41.7165C19.9854 42.2737 19.735 42.8309 19.4971 43.3882C19.2654 43.9454 19.0526 44.5026 18.8585 45.0536C18.6644 45.6045 18.4954 46.1555 18.3389 46.7002C18.1886 47.2449 18.0509 47.7896 17.9382 48.3218C17.8255 48.854 17.7254 49.3924 17.6502 49.9121C17.5751 50.438 17.5125 50.9576 17.4749 51.4648C17.4374 51.903 17.4248 52.3476 17.4311 52.7858C17.4311 53.2241 17.4624 53.6624 17.5062 54.1006C17.5501 54.5389 17.6189 54.9709 17.7003 55.4029C17.7817 55.8349 17.8881 56.2606 18.0071 56.6864C18.126 57.1121 18.27 57.5254 18.4265 57.9386C18.583 58.3518 18.7583 58.7525 18.9462 59.1469C19.134 59.5414 19.3468 59.9296 19.5659 60.3115C19.7913 60.6871 20.0292 61.0565 20.2859 61.4134C20.5426 61.7703 20.8118 62.1146 21.0935 62.4527C21.3815 62.7845 21.6757 63.1038 21.9888 63.4106C22.3018 63.7174 22.6273 64.0117 22.9717 64.2872C23.316 64.5626 23.6666 64.8256 24.0297 65.0698C24.3991 65.314 24.7747 65.5394 25.1628 65.746C25.551 65.9526 25.9579 66.1404 26.3711 66.3157C26.7843 66.4848 27.21 66.635 27.642 66.7602C28.074 66.8854 28.5247 66.9919 28.9755 67.0733C29.4325 67.1547 29.8833 67.2173 30.334 67.2486C30.7848 67.2799 31.2356 67.2987 31.68 67.2862C32.1245 67.2736 32.569 67.2423 33.001 67.1922C33.4393 67.1359 33.865 67.067 34.2907 66.9668C34.7164 66.8729 35.1359 66.754 35.5428 66.6225C35.956 66.4848 36.3567 66.3345 36.7511 66.1592C37.1455 65.9839 37.5274 65.7961 37.903 65.5832C38.2786 65.3766 38.6418 65.1449 38.9923 64.9007C39.3429 64.6566 39.6873 64.3936 40.0128 64.1181C40.3383 63.8426 40.6576 63.5484 40.9581 63.2416C41.2587 62.9348 41.5466 62.6092 41.8158 62.2774C42.085 61.9393 42.3417 61.5887 42.5796 61.2256C42.8175 60.8624 43.0366 60.4868 43.2432 60.0923C43.4436 59.7042 43.6314 59.3035 43.7942 58.8902C43.9569 58.477 44.1072 58.0513 44.2324 57.6193C44.3576 57.1873 44.464 56.7365 44.5454 56.2857C44.6331 55.8099 44.6894 55.334 44.727 54.8582C44.7645 54.3824 44.7708 53.9128 44.7583 53.4495C44.7458 52.9862 44.7019 52.5229 44.6393 52.0658C44.5767 51.6088 44.4891 51.158 44.3827 50.7135C44.2762 50.2689 44.1447 49.8369 43.9945 49.4049C43.8442 48.9729 43.6689 48.5597 43.4749 48.1527C43.2808 47.7458 43.0679 47.3451 42.8363 46.9632C42.6047 46.5812 42.3542 46.2056 42.0788 45.8424C41.8096 45.4793 41.5216 45.135 41.2148 44.8031C40.9081 44.4713 40.5888 44.152 40.2444 43.8515C39.9001 43.5509 39.5495 43.2692 39.1802 43C38.8108 42.737 38.4226 42.4866 38.0282 42.2549C37.6275 42.0295 37.2144 41.8167 36.7886 41.6288C36.3629 41.441 35.9247 41.272 35.4739 41.128C35.0232 40.984 34.5599 40.865 34.0841 40.7648C33.6083 40.6709 33.1262 40.5958 32.6317 40.5457L32.6692 40.5707Z" fill="white"/>
</svg>
