<svg width="64" height="64" viewBox="0 0 64 64" fill="none" xmlns="http://www.w3.org/2000/svg">
<g clip-path="url(#clip0_14721_5320)">
<path fill-rule="evenodd" clip-rule="evenodd" d="M41.9522 0.130258C39.7216 0.478258 36.9731 1.38363 35.2482 2.33876C34.0367 3.00951 32.2887 4.22826 31.9349 4.64888C31.5317 5.12788 31.53 5.66813 31.9301 6.06813C32.3911 6.52913 32.9666 6.48001 33.7049 5.91638C36.1046 4.08463 39.053 2.79126 41.9162 2.31438C43.528 2.04588 46.2919 2.04726 47.9982 2.31738C55.048 3.43338 60.6267 8.51426 61.7449 14.8375C61.8202 15.2638 61.8815 16.22 61.8809 16.9625C61.8792 18.9036 61.4165 20.4138 60.3439 21.9783C59.8564 22.6894 59.8424 23.3164 60.3052 23.7145C61.1046 24.402 61.9104 23.8566 62.8485 21.9929C63.6884 20.3243 63.8914 19.4723 63.9635 17.3125C64.0115 15.874 63.9772 15.1756 63.8165 14.3125C62.5314 7.41113 56.9159 2.02313 49.2809 0.365883C48.3035 0.153758 47.526 0.0925078 45.3732 0.0583828C43.8951 0.0350078 42.3556 0.0673828 41.9522 0.130258ZM15.6857 4.17451C12.7986 4.64913 9.50224 5.93026 7.59199 7.32038C7.04211 7.72051 6.99824 7.79226 6.99824 8.29188C6.99824 9.39601 7.88324 9.68488 9.02711 8.95426C11.9936 7.05938 15.2622 6.11526 18.8732 6.11038C21.1169 6.10738 22.8264 6.36651 24.7755 7.00501C30.1861 8.77763 34.1534 12.7275 35.505 17.6875C35.9141 19.1885 35.9822 22.0231 35.6482 23.6399C34.572 28.8495 30.4759 33.1275 24.7755 34.995C23.3964 35.4468 21.2622 35.875 20.3896 35.875H19.9982V33.1875C19.9982 30.7168 19.9791 30.4809 19.7615 30.2633C19.5394 30.0411 19.2234 30.0229 14.6677 29.9675C9.22836 29.9014 8.99486 29.8708 7.17536 28.9858C4.74524 27.8039 2.96849 25.6001 2.31761 22.9608C2.05211 21.884 2.05099 19.9081 2.31536 18.515C2.75824 16.1803 3.75661 14.146 5.56361 11.8965C6.06786 11.2689 6.11761 10.8105 5.73424 10.3231C5.50549 10.0324 5.39336 9.99251 4.89549 10.025C4.35324 10.0604 4.27924 10.1119 3.58499 10.9375C2.19224 12.5936 1.01311 14.93 0.416364 17.2163C-0.0598862 19.0406 -0.138886 21.7899 0.237989 23.4209C1.17199 27.4628 4.32299 30.679 8.34924 31.7004C9.48061 31.9874 9.70849 32 13.7642 32H17.9982V34.75C17.9982 38.2899 17.8372 38.0649 20.2972 37.9606C28.8701 37.5974 36.166 31.7641 37.7462 24.0096C38.0935 22.3058 38.0935 19.6943 37.7462 17.9904C36.3714 11.2439 30.7996 5.99888 23.2704 4.36376C21.7234 4.02776 17.2564 3.91626 15.6857 4.17451ZM14.2482 20.25C14.0816 20.4166 13.9982 20.6666 13.9982 21C13.9982 21.6666 14.3316 22 14.9982 22C15.3316 22 15.5816 21.9166 15.7482 21.75C15.9149 21.5834 15.9982 21.3334 15.9982 21C15.9982 20.3334 15.6649 20 14.9982 20C14.6649 20 14.4149 20.0834 14.2482 20.25ZM18.2482 20.25C18.0816 20.4166 17.9982 20.6666 17.9982 21C17.9982 21.3334 18.0816 21.5834 18.2482 21.75C18.4149 21.9166 18.6649 22 18.9982 22C19.3316 22 19.5816 21.9166 19.7482 21.75C19.9149 21.5834 19.9982 21.3334 19.9982 21C19.9982 20.6666 19.9149 20.4166 19.7482 20.25C19.5816 20.0834 19.3316 20 18.9982 20C18.6649 20 18.4149 20.0834 18.2482 20.25ZM22.2482 20.25C22.0816 20.4166 21.9982 20.6666 21.9982 21C21.9982 21.3334 22.0816 21.5834 22.2482 21.75C22.4149 21.9166 22.6649 22 22.9982 22C23.3316 22 23.5816 21.9166 23.7482 21.75C23.9149 21.5834 23.9982 21.3334 23.9982 21C23.9982 20.6666 23.9149 20.4166 23.7482 20.25C23.5816 20.0834 23.3316 20 22.9982 20C22.6649 20 22.4149 20.0834 22.2482 20.25ZM56.3379 25.1988C56.1465 25.3025 55.5559 25.5053 55.0254 25.6494C54.1462 25.8881 53.6357 25.9165 49.2661 25.969C44.7716 26.0231 44.4567 26.0415 44.2349 26.2634C44.0172 26.481 43.9982 26.7176 43.9982 29.2055V31.9109L43.106 31.828C41.8392 31.7103 40.5177 31.4208 38.9737 30.923C37.5381 30.46 37.1287 30.459 36.8079 30.9171C36.5242 31.322 36.5726 32.0349 36.9045 32.3401C37.24 32.6486 39.5106 33.3965 40.9982 33.6883C41.5826 33.8029 42.8266 33.9276 43.7626 33.9653C46.1496 34.0614 45.9982 34.279 45.9982 30.75V28H50.1171C54.4127 28 54.8601 27.9594 56.5339 27.417C57.7955 27.008 58.2482 26.6368 58.2482 26.0106C58.2482 25.1235 57.255 24.7014 56.3379 25.1988ZM17.0935 40.2428C15.2822 40.8218 13.7296 42.4149 13.1964 44.2415C12.9174 45.1973 12.9174 48.8028 13.1964 49.7585C13.736 51.6071 15.2925 53.1899 17.1346 53.7631C18.1584 54.0818 19.8381 54.0818 20.8619 53.7631C22.704 53.1899 24.2605 51.6071 24.8001 49.7585C25.0791 48.8028 25.0791 45.1973 24.8001 44.2415C24.2605 42.3929 22.704 40.8101 20.8619 40.2369C19.8537 39.923 18.0849 39.9259 17.0935 40.2428ZM43.0935 40.2428C41.2822 40.8218 39.7296 42.4149 39.1964 44.2415C39.0506 44.7408 38.9982 45.4705 38.9982 47C38.9982 48.5295 39.0506 49.2593 39.1964 49.7585C39.736 51.6071 41.2925 53.1899 43.1346 53.7631C44.1584 54.0818 45.8381 54.0818 46.8619 53.7631C48.704 53.1899 50.2605 51.6071 50.8001 49.7585C51.0791 48.8028 51.0791 45.1973 50.8001 44.2415C50.2605 42.3929 48.704 40.8101 46.8619 40.2369C45.8537 39.923 44.0849 39.9259 43.0935 40.2428ZM20.8521 42.5631C22.1011 43.2429 22.696 44.2051 22.9086 45.8899C23.1937 48.1485 22.6949 50.0211 21.5644 50.9363C20.6175 51.7028 20.2957 51.8125 18.9982 51.8121C18.0061 51.8119 17.7239 51.7655 17.283 51.5301C15.9311 50.8086 15.3059 49.8376 15.0896 48.1239C14.9182 46.766 15.0944 45.0418 15.4821 44.2816C16.2472 42.782 17.4537 42.0916 19.1872 42.1616C20.0075 42.1948 20.309 42.2674 20.8521 42.5631ZM46.8521 42.5631C48.1011 43.2429 48.696 44.2051 48.9086 45.8899C49.1937 48.1485 48.6949 50.0211 47.5644 50.9363C46.6175 51.7028 46.2957 51.8125 44.9982 51.8121C44.0061 51.8119 43.7239 51.7655 43.283 51.5301C41.9311 50.8086 41.3059 49.8376 41.0896 48.1239C40.9182 46.766 41.0944 45.0418 41.4821 44.2816C42.2472 42.782 43.4537 42.0916 45.1872 42.1616C46.0075 42.1948 46.309 42.2674 46.8521 42.5631ZM13.405 54.1825C12.1652 54.5698 11.0329 55.5831 10.4002 56.8713C10.0642 57.5555 10.0604 57.5925 10.0214 60.5231C9.98349 63.3754 9.99149 63.4933 10.2401 63.7419C10.4959 63.9976 10.5759 64 18.9982 64C27.4206 64 27.5006 63.9976 27.7564 63.7419C28.005 63.4933 28.013 63.3754 27.9751 60.5231L27.9357 57.5625L27.568 56.8125C26.7707 55.1863 25.2221 54.1256 23.4995 54.0259C22.6342 53.9758 22.4997 53.9985 22.2634 54.2349C21.914 54.5843 21.9009 55.4026 22.2392 55.741C22.3751 55.8769 22.743 56.0166 23.083 56.0615C24.3276 56.2255 25.198 56.8369 25.665 57.875C25.869 58.3285 25.9289 58.7829 25.9739 60.2188L26.0297 62H18.9982H11.9667L12.0226 60.2188C12.0676 58.7829 12.1275 58.3285 12.3315 57.875C12.7985 56.8369 13.6689 56.2255 14.9135 56.0615C15.6869 55.9595 15.9982 55.6548 15.9982 55C15.9982 54.2403 15.6852 53.998 14.717 54.0084C14.2874 54.013 13.6969 54.0914 13.405 54.1825ZM39.405 54.1825C38.1652 54.5698 37.0329 55.5831 36.4002 56.8713C36.0642 57.5555 36.0604 57.5925 36.0214 60.5231C35.9835 63.3754 35.9915 63.4933 36.2401 63.7419C36.4959 63.9976 36.5759 64 44.9982 64C53.4206 64 53.5006 63.9976 53.7564 63.7419C54.005 63.4933 54.013 63.3754 53.9751 60.5231L53.9357 57.5625L53.568 56.8125C52.7707 55.1863 51.2221 54.1256 49.4995 54.0259C48.6342 53.9758 48.4997 53.9985 48.2634 54.2349C47.914 54.5843 47.9009 55.4026 48.2392 55.741C48.3751 55.8769 48.743 56.0166 49.083 56.0615C50.3276 56.2255 51.198 56.8369 51.665 57.875C51.869 58.3285 51.9289 58.7829 51.9739 60.2188L52.0297 62H44.9982H37.9667L38.0226 60.2188C38.0676 58.7829 38.1275 58.3285 38.3315 57.875C38.7985 56.8369 39.6689 56.2255 40.9135 56.0615C41.6869 55.9595 41.9982 55.6548 41.9982 55C41.9982 54.2403 41.6852 53.998 40.717 54.0084C40.2874 54.013 39.6969 54.0914 39.405 54.1825Z" fill="black"/>
</g>
<defs>
<clipPath id="clip0_14721_5320">
<rect width="64" height="64" fill="white"/>
</clipPath>
</defs>
</svg>
