<svg width="64" height="64" viewBox="0 0 64 64" fill="none" xmlns="http://www.w3.org/2000/svg">
<g clip-path="url(#clip0_13243_6561)">
<path d="M49.8918 64H7.18659C3.52921 64 0.553711 61.0246 0.553711 57.3671V6.63287C0.553711 2.9755 3.52921 0 7.18659 0H56.8141C60.4715 0 63.4472 2.9755 63.4472 6.63287V51.8864C63.4472 52.9049 62.6212 53.7309 61.6027 53.7309C60.5842 53.7309 59.7582 52.9049 59.7582 51.8864V6.63287C59.7582 5.0095 58.4376 3.68887 56.8141 3.68887H7.18659C5.56321 3.68887 4.24259 5.0095 4.24259 6.63287V57.3672C4.24259 58.9906 5.56321 60.3112 7.18671 60.3112H49.8917C50.9102 60.3112 51.7362 61.1372 51.7362 62.1558C51.7362 63.1743 50.9103 64 49.8918 64Z" fill="#AB1A1A"/>
<path d="M34.4521 27.3094C34.4521 27.2248 34.4804 27.1119 34.5088 26.9988L39.7609 9.77404C40.0715 8.78579 41.3421 8.30566 42.641 8.30566C43.9399 8.30566 45.2108 8.78579 45.5211 9.77404L50.8015 26.9988C50.8298 27.1117 50.8581 27.2248 50.8581 27.3094C50.8581 28.3542 49.2485 29.1167 48.0343 29.1167C47.3284 29.1167 46.7636 28.8907 46.5941 28.2979L45.6341 24.7682H39.6761L38.7161 28.2979C38.5466 28.8909 37.982 29.1167 37.276 29.1167C36.0618 29.1167 34.4521 28.3542 34.4521 27.3094ZM44.7023 21.3794L42.641 13.8119L40.5796 21.3794H44.7023Z" fill="#AB1A1A"/>
<path d="M19.6564 25.223C23.2534 25.223 26.1693 22.3071 26.1693 18.7101C26.1693 15.1132 23.2534 12.1973 19.6564 12.1973C16.0595 12.1973 13.1436 15.1132 13.1436 18.7101C13.1436 22.3071 16.0595 25.223 19.6564 25.223Z" fill="white"/>
<path d="M19.6561 27.0688C15.0474 27.0688 11.2979 23.3193 11.2979 18.7105C11.2979 14.1019 15.0474 10.3525 19.6561 10.3525C24.2647 10.3525 28.0141 14.102 28.0141 18.7105C28.0141 23.3194 24.2647 27.0688 19.6561 27.0688ZM19.6561 14.0413C17.0814 14.0413 14.9869 16.1359 14.9869 18.7104C14.9869 21.2852 17.0815 23.3797 19.6561 23.3797C22.2306 23.3797 24.3252 21.285 24.3252 18.7104C24.3252 16.1359 22.2306 14.0413 19.6561 14.0413Z" fill="#AB1A1A"/>
<path d="M36.5479 36.4082C36.5479 35.5049 37.5079 35.0527 38.468 35.0527H44.2567C47.0806 35.0527 49.9041 36.0694 49.9041 40.0791C49.9041 42.3662 49.0007 43.8629 47.5038 44.5122C49.2263 45.1616 50.4123 46.2066 50.4123 49.0301V49.6231C50.4123 54.0845 47.9275 55.6942 44.7367 55.6942H38.4681C37.2821 55.6942 36.548 55.073 36.548 54.3671L36.5479 36.4082ZM40.9247 42.8181H43.8895C44.9626 42.8181 45.4991 41.8299 45.4991 40.8697C45.4991 39.8815 44.9627 38.893 43.8895 38.893H40.9247V42.8181ZM43.7485 51.854C45.1602 51.854 46.0074 51.0632 46.0074 49.2561V48.8044C46.0074 46.8842 45.1602 46.2066 43.7485 46.2066H40.9246V51.854H43.7485Z" fill="#AB1A1A"/>
<path d="M20.1008 51.8871C23.6977 51.8871 26.6136 48.9712 26.6136 45.3742C26.6136 41.7772 23.6977 38.8613 20.1008 38.8613C16.5038 38.8613 13.5879 41.7772 13.5879 45.3742C13.5879 48.9712 16.5038 51.8871 20.1008 51.8871Z" fill="white"/>
<path d="M20.1014 53.7319C15.4927 53.7319 11.7432 49.9824 11.7432 45.3739C11.7432 40.7651 15.4927 37.0156 20.1014 37.0156C24.71 37.0156 28.4594 40.7651 28.4594 45.3739C28.4594 49.9824 24.7099 53.7319 20.1014 53.7319ZM20.1014 40.7045C17.5267 40.7045 15.4322 42.7991 15.4322 45.3737C15.4322 47.9482 17.5268 50.0429 20.1014 50.0429C22.6759 50.0429 24.7705 47.9482 24.7705 45.3737C24.7704 42.7991 22.6759 40.7045 20.1014 40.7045Z" fill="#AB1A1A"/>
</g>
<defs>
<clipPath id="clip0_13243_6561">
<rect width="64" height="64" fill="white"/>
</clipPath>
</defs>
</svg>
