<svg width="88" height="88" viewBox="0 0 88 88" fill="none" xmlns="http://www.w3.org/2000/svg">
<path d="M74.25 11H13.75C9.19366 11 5.5 14.6937 5.5 19.25V68.75C5.5 73.3065 9.19366 77 13.75 77H74.25C78.8065 77 82.5 73.3065 82.5 68.75V19.25C82.5 14.6937 78.8065 11 74.25 11Z" fill="#B71C1C"/>
<path d="M68.75 66H19.25C18.5206 66 17.8212 65.7101 17.3054 65.1945C16.7897 64.6789 16.5 63.9793 16.5 63.25C16.5 62.5207 16.7897 61.8211 17.3054 61.3055C17.8212 60.7899 18.5206 60.5 19.25 60.5H68.75C69.4793 60.5 70.1789 60.7899 70.6945 61.3055C71.2102 61.8211 71.5 62.5207 71.5 63.25C71.5 63.9793 71.2102 64.6789 70.6945 65.1945C70.1789 65.7101 69.4793 66 68.75 66Z" fill="#EEEEEE"/>
<path d="M52.25 68.75C51.5207 68.75 50.8211 68.4601 50.3055 67.9445C49.7899 67.4289 49.5 66.7293 49.5 66V60.5C49.5 59.7707 49.7899 59.0711 50.3055 58.5555C50.8211 58.0399 51.5207 57.75 52.25 57.75C52.9793 57.75 53.6789 58.0399 54.1945 58.5555C54.7101 59.0711 55 59.7707 55 60.5V66C55 66.7293 54.7101 67.4289 54.1945 67.9445C53.6789 68.4601 52.9793 68.75 52.25 68.75Z" fill="#EEEEEE"/>
<path d="M56.2375 34.8424L36.9875 25.2173C36.5689 25.0063 36.1034 24.9059 35.6348 24.9255C35.1665 24.9451 34.7111 25.0842 34.3115 25.3294C33.9119 25.5746 33.5816 25.9179 33.3523 26.3266C33.1227 26.7354 33.0014 27.196 33 27.6649V49.3349C33.0036 49.8249 33.138 50.3051 33.3894 50.7256C33.6407 51.1463 34.0002 51.492 34.43 51.7274C34.8282 51.9666 35.2852 52.0904 35.75 52.0849C36.2648 52.0865 36.77 51.9435 37.2075 51.6724L56.4575 39.6274C56.8744 39.3678 57.214 39.0012 57.4412 38.5659C57.6686 38.1308 57.775 37.6427 57.75 37.1524C57.7239 36.6681 57.5704 36.1995 57.3048 35.7936C57.0391 35.388 56.6709 35.0599 56.2375 34.8424Z" fill="#EEEEEE"/>
<path d="M13.75 11C11.562 11 9.46355 11.8692 7.91637 13.4164C6.36919 14.9635 5.5 17.062 5.5 19.25V68.75C5.5 70.9379 6.36919 73.0364 7.91637 74.5836C9.46355 76.1307 11.562 77 13.75 77H44V11H13.75Z" fill="#E53935"/>
<path d="M19.25 60.5C18.5206 60.5 17.8212 60.7899 17.3054 61.3055C16.7897 61.8211 16.5 62.5207 16.5 63.25C16.5 63.9793 16.7897 64.6789 17.3054 65.1945C17.8212 65.7101 18.5206 66 19.25 66H44V60.5H19.25Z" fill="#FAFAFA"/>
<path d="M36.9875 25.2173C36.5689 25.0063 36.1034 24.9059 35.6348 24.9255C35.1665 24.9451 34.7111 25.0842 34.3115 25.3294C33.9119 25.5746 33.5816 25.9179 33.3523 26.3266C33.1227 26.7354 33.0014 27.196 33 27.6649V49.3349C33.0036 49.8249 33.138 50.3051 33.3894 50.7256C33.6407 51.1463 34.0002 51.492 34.43 51.7274C34.8282 51.9666 35.2852 52.0904 35.75 52.0849C36.2648 52.0865 36.77 51.9435 37.2075 51.6724L44 47.4099V28.7099L36.9875 25.2173Z" fill="#FFEBEE"/>
</svg>
